<svg width="758" height="626" viewBox="0 0 758 626" fill="none" xmlns="http://www.w3.org/2000/svg">
<path d="M129.84 454.86C128.72 453.74 127.88 452.76 127.32 451.92C126.76 451.08 126.2 450.66 125.64 450.66C124.24 450.66 123.4 451.64 123.12 453.6C122.84 455.28 122.42 457.24 121.86 459.48C121.58 461.44 120.88 463.26 119.76 464.94C118.64 466.62 116.68 467.46 113.88 467.46C111.64 467.46 109.4 467.32 107.16 467.04C104.92 466.76 102.68 466.48 100.44 466.2C99.3205 464.52 98.9005 462.84 99.1805 461.16C99.4605 459.48 99.3205 457.94 98.7605 456.54C98.2005 454.86 97.5005 452.9 96.6605 450.66C95.8205 448.42 95.4005 446.46 95.4005 444.78C95.4005 443.1 95.5405 441.42 95.8205 439.74C96.1005 438.06 96.2405 436.24 96.2405 434.28C96.2405 432.6 95.9605 431.06 95.4005 429.66C95.1205 427.98 94.9805 426.3 94.9805 424.62C94.9805 422.94 95.4005 421.4 96.2405 420C97.0805 418.6 97.5005 416.92 97.5005 414.96C97.5005 413.84 97.3605 412.86 97.0805 412.02C97.0805 410.9 97.0805 409.78 97.0805 408.66C97.0805 405.02 97.3605 401.52 97.9205 398.16C98.7605 394.52 100.16 391.02 102.12 387.66C102.12 385.7 101.98 383.88 101.7 382.2C101.7 380.52 101.7 378.7 101.7 376.74C101.7 371.14 102.54 365.68 104.22 360.36C106.18 355.04 107.16 349.72 107.16 344.4C107.16 338.24 106.04 331.52 103.8 324.24C97.6405 324.8 92.0405 326.2 87.0005 328.44C81.9605 330.68 76.9205 332.92 71.8805 335.16C69.3605 336.28 66.9805 337.82 64.7405 339.78C62.5005 341.74 60.1205 343.84 57.6005 346.08C55.0805 348.04 52.2805 350.14 49.2005 352.38C46.4005 354.34 43.1805 356.02 39.5405 357.42C37.5805 357.14 35.3405 356.58 32.8205 355.74C30.3005 354.62 27.7805 353.36 25.2605 351.96C23.0205 350.56 21.0605 349.02 19.3805 347.34C17.9805 345.66 17.2805 343.98 17.2805 342.3C17.2805 340.62 17.8405 339.08 18.9605 337.68C20.0805 336 20.6405 334.04 20.6405 331.8C20.6405 331.24 20.5005 330.54 20.2205 329.7C20.2205 328.86 20.2205 328.16 20.2205 327.6C20.2205 325.08 20.7805 322.28 21.9005 319.2C23.3005 315.84 24.7005 312.62 26.1005 309.54C27.5005 306.46 28.7605 303.52 29.8805 300.72C31.2805 297.64 31.9805 295.12 31.9805 293.16C31.9805 292.6 31.8405 292.32 31.5605 292.32C31.5605 292.04 31.5605 291.62 31.5605 291.06C32.9605 288.26 34.5005 285.32 36.1805 282.24C37.8605 278.88 38.7005 276.08 38.7005 273.84C38.7005 272.72 38.2805 271.74 37.4405 270.9C36.8805 269.78 36.6005 268.66 36.6005 267.54C36.6005 264.74 37.4405 261.94 39.1205 259.14C41.0805 256.06 42.0605 252.84 42.0605 249.48C42.0605 248.64 41.9205 247.94 41.6405 247.38C41.6405 246.54 41.6405 245.7 41.6405 244.86C41.6405 242.9 42.0605 241.08 42.9005 239.4C45.4205 231.28 47.2405 223.16 48.3605 215.04C49.7605 206.64 51.7205 198.38 54.2405 190.26C55.0805 187.74 55.5005 185.22 55.5005 182.7C55.5005 181.58 55.3605 180.46 55.0805 179.34C55.0805 178.22 55.0805 177.1 55.0805 175.98C55.0805 173.74 56.3405 172.48 58.8605 172.2C61.3805 171.64 63.3405 171.08 64.7405 170.52C73.7005 170.52 78.1805 175.56 78.1805 185.64C78.1805 188.72 77.4805 192.22 76.0805 196.14C74.9605 199.78 73.5605 203.56 71.8805 207.48C70.4805 211.12 69.0805 214.62 67.6805 217.98C66.5605 221.06 66.0005 223.58 66.0005 225.54C66.0005 228.06 65.5805 230.86 64.7405 233.94C63.9005 237.02 63.0605 240.24 62.2205 243.6C61.3805 246.68 60.5405 249.76 59.7005 252.84C58.8605 255.64 58.4405 258.02 58.4405 259.98C58.4405 261.38 58.7205 262.64 59.2805 263.76C60.1205 264.88 60.5405 266.28 60.5405 267.96C60.5405 270.48 60.2605 273.42 59.7005 276.78C59.1405 280.14 58.4405 283.5 57.6005 286.86C57.0405 290.22 56.4805 293.3 55.9205 296.1C55.3605 298.9 55.0805 300.72 55.0805 301.56C55.0805 303.8 55.2205 305.9 55.5005 307.86C56.0605 309.82 57.6005 310.8 60.1205 310.8C67.4005 308.56 74.9605 306.6 82.8005 304.92C90.6405 303.24 98.4805 301.7 106.32 300.3C109.68 299.74 112.2 297.36 113.88 293.16C115.84 288.68 117.38 283.36 118.5 277.2C119.62 270.76 120.46 264.04 121.02 257.04C121.86 249.76 122.7 243.18 123.54 237.3C124.66 231.14 125.92 226.1 127.32 222.18C129 217.98 131.38 215.88 134.46 215.88C136.7 215.88 139.08 216.02 141.6 216.3C144.4 216.58 146.92 217.28 149.16 218.4C151.68 219.24 153.78 220.5 155.46 222.18C157.14 223.86 157.98 226.1 157.98 228.9C157.98 233.94 157.56 239.12 156.72 244.44C156.16 249.76 155.6 254.94 155.04 259.98C155.04 263.06 154.2 265.86 152.52 268.38C150.84 270.62 150 273.28 150 276.36C150 277.76 150 279.02 150 280.14C150.28 280.98 150.42 281.96 150.42 283.08C150.42 289.8 150 297.22 149.16 305.34C148.6 313.46 146.64 321.3 143.28 328.86C141.88 331.66 140.76 334.46 139.92 337.26C139.36 339.78 139.08 342.58 139.08 345.66C139.08 350.14 137.54 354.06 134.46 357.42C131.66 360.78 130.26 364.28 130.26 367.92C130.26 369.32 130.68 370.86 131.52 372.54C132.36 373.94 132.78 375.2 132.78 376.32C132.78 377.16 132.36 378.56 131.52 380.52C130.68 382.2 130.26 383.88 130.26 385.56C130.26 387.8 130.68 390.18 131.52 392.7C132.64 394.94 133.2 397.32 133.2 399.84C133.2 402.08 132.78 404.46 131.94 406.98C131.38 409.22 131.1 411.46 131.1 413.7C131.1 418.46 131.94 421.96 133.62 424.2C135.3 426.16 136.14 428.96 136.14 432.6C136.14 433.44 136 434 135.72 434.28C132.92 437.36 131.38 440.58 131.1 443.94C131.1 447.3 130.68 450.94 129.84 454.86ZM125.64 359.94C125.08 360.5 124.38 360.92 123.54 361.2C122.98 361.2 122.7 361.76 122.7 362.88C122.7 364.28 123.54 364.98 125.22 364.98C125.5 364.98 125.78 364.84 126.06 364.56C126.62 364 126.9 363.3 126.9 362.46C126.9 361.9 126.76 361.48 126.48 361.2C126.2 360.92 125.92 360.5 125.64 359.94Z" fill="#232323"/>
<path d="M704.84 454.86C703.72 453.74 702.88 452.76 702.32 451.92C701.76 451.08 701.2 450.66 700.64 450.66C699.24 450.66 698.4 451.64 698.12 453.6C697.84 455.28 697.42 457.24 696.86 459.48C696.58 461.44 695.88 463.26 694.76 464.94C693.64 466.62 691.68 467.46 688.88 467.46C686.64 467.46 684.4 467.32 682.16 467.04C679.92 466.76 677.68 466.48 675.44 466.2C674.32 464.52 673.9 462.84 674.18 461.16C674.46 459.48 674.32 457.94 673.76 456.54C673.2 454.86 672.5 452.9 671.66 450.66C670.82 448.42 670.4 446.46 670.4 444.78C670.4 443.1 670.54 441.42 670.82 439.74C671.1 438.06 671.24 436.24 671.24 434.28C671.24 432.6 670.96 431.06 670.4 429.66C670.12 427.98 669.98 426.3 669.98 424.62C669.98 422.94 670.4 421.4 671.24 420C672.08 418.6 672.5 416.92 672.5 414.96C672.5 413.84 672.36 412.86 672.08 412.02C672.08 410.9 672.08 409.78 672.08 408.66C672.08 405.02 672.36 401.52 672.92 398.16C673.76 394.52 675.16 391.02 677.12 387.66C677.12 385.7 676.98 383.88 676.7 382.2C676.7 380.52 676.7 378.7 676.7 376.74C676.7 371.14 677.54 365.68 679.22 360.36C681.18 355.04 682.16 349.72 682.16 344.4C682.16 338.24 681.04 331.52 678.8 324.24C672.64 324.8 667.04 326.2 662 328.44C656.96 330.68 651.92 332.92 646.88 335.16C644.36 336.28 641.98 337.82 639.74 339.78C637.5 341.74 635.12 343.84 632.6 346.08C630.08 348.04 627.28 350.14 624.2 352.38C621.4 354.34 618.18 356.02 614.54 357.42C612.58 357.14 610.34 356.58 607.82 355.74C605.3 354.62 602.78 353.36 600.26 351.96C598.02 350.56 596.06 349.02 594.38 347.34C592.98 345.66 592.28 343.98 592.28 342.3C592.28 340.62 592.84 339.08 593.96 337.68C595.08 336 595.64 334.04 595.64 331.8C595.64 331.24 595.5 330.54 595.22 329.7C595.22 328.86 595.22 328.16 595.22 327.6C595.22 325.08 595.78 322.28 596.9 319.2C598.3 315.84 599.7 312.62 601.1 309.54C602.5 306.46 603.76 303.52 604.88 300.72C606.28 297.64 606.98 295.12 606.98 293.16C606.98 292.6 606.84 292.32 606.56 292.32C606.56 292.04 606.56 291.62 606.56 291.06C607.96 288.26 609.5 285.32 611.18 282.24C612.86 278.88 613.7 276.08 613.7 273.84C613.7 272.72 613.28 271.74 612.44 270.9C611.88 269.78 611.6 268.66 611.6 267.54C611.6 264.74 612.44 261.94 614.12 259.14C616.08 256.06 617.06 252.84 617.06 249.48C617.06 248.64 616.92 247.94 616.64 247.38C616.64 246.54 616.64 245.7 616.64 244.86C616.64 242.9 617.06 241.08 617.9 239.4C620.42 231.28 622.24 223.16 623.36 215.04C624.76 206.64 626.72 198.38 629.24 190.26C630.08 187.74 630.5 185.22 630.5 182.7C630.5 181.58 630.36 180.46 630.08 179.34C630.08 178.22 630.08 177.1 630.08 175.98C630.08 173.74 631.34 172.48 633.86 172.2C636.38 171.64 638.34 171.08 639.74 170.52C648.7 170.52 653.18 175.56 653.18 185.64C653.18 188.72 652.48 192.22 651.08 196.14C649.96 199.78 648.56 203.56 646.88 207.48C645.48 211.12 644.08 214.62 642.68 217.98C641.56 221.06 641 223.58 641 225.54C641 228.06 640.58 230.86 639.74 233.94C638.9 237.02 638.06 240.24 637.22 243.6C636.38 246.68 635.54 249.76 634.7 252.84C633.86 255.64 633.44 258.02 633.44 259.98C633.44 261.38 633.72 262.64 634.28 263.76C635.12 264.88 635.54 266.28 635.54 267.96C635.54 270.48 635.26 273.42 634.7 276.78C634.14 280.14 633.44 283.5 632.6 286.86C632.04 290.22 631.48 293.3 630.92 296.1C630.36 298.9 630.08 300.72 630.08 301.56C630.08 303.8 630.22 305.9 630.5 307.86C631.06 309.82 632.6 310.8 635.12 310.8C642.4 308.56 649.96 306.6 657.8 304.92C665.64 303.24 673.48 301.7 681.32 300.3C684.68 299.74 687.2 297.36 688.88 293.16C690.84 288.68 692.38 283.36 693.5 277.2C694.62 270.76 695.46 264.04 696.02 257.04C696.86 249.76 697.7 243.18 698.54 237.3C699.66 231.14 700.92 226.1 702.32 222.18C704 217.98 706.38 215.88 709.46 215.88C711.7 215.88 714.08 216.02 716.6 216.3C719.4 216.58 721.92 217.28 724.16 218.4C726.68 219.24 728.78 220.5 730.46 222.18C732.14 223.86 732.98 226.1 732.98 228.9C732.98 233.94 732.56 239.12 731.72 244.44C731.16 249.76 730.6 254.94 730.04 259.98C730.04 263.06 729.2 265.86 727.52 268.38C725.84 270.62 725 273.28 725 276.36C725 277.76 725 279.02 725 280.14C725.28 280.98 725.42 281.96 725.42 283.08C725.42 289.8 725 297.22 724.16 305.34C723.6 313.46 721.64 321.3 718.28 328.86C716.88 331.66 715.76 334.46 714.92 337.26C714.36 339.78 714.08 342.58 714.08 345.66C714.08 350.14 712.54 354.06 709.46 357.42C706.66 360.78 705.26 364.28 705.26 367.92C705.26 369.32 705.68 370.86 706.52 372.54C707.36 373.94 707.78 375.2 707.78 376.32C707.78 377.16 707.36 378.56 706.52 380.52C705.68 382.2 705.26 383.88 705.26 385.56C705.26 387.8 705.68 390.18 706.52 392.7C707.64 394.94 708.2 397.32 708.2 399.84C708.2 402.08 707.78 404.46 706.94 406.98C706.38 409.22 706.1 411.46 706.1 413.7C706.1 418.46 706.94 421.96 708.62 424.2C710.3 426.16 711.14 428.96 711.14 432.6C711.14 433.44 711 434 710.72 434.28C707.92 437.36 706.38 440.58 706.1 443.94C706.1 447.3 705.68 450.94 704.84 454.86ZM700.64 359.94C700.08 360.5 699.38 360.92 698.54 361.2C697.98 361.2 697.7 361.76 697.7 362.88C697.7 364.28 698.54 364.98 700.22 364.98C700.5 364.98 700.78 364.84 701.06 364.56C701.62 364 701.9 363.3 701.9 362.46C701.9 361.9 701.76 361.48 701.48 361.2C701.2 360.92 700.92 360.5 700.64 359.94Z" fill="#232323"/>
</svg>
