<svg width="234" height="100" viewBox="0 0 234 100" fill="none" xmlns="http://www.w3.org/2000/svg">
<path d="M212.575 50.4128C212.229 54.795 209.09 58.9115 203.501 62.59C197.92 66.2626 189.982 69.4386 180.239 71.9534C160.759 76.9816 134.178 79.338 105.122 77.8152C76.0658 76.2924 50.0751 71.1809 31.546 64.1608C22.2787 60.6496 14.9052 56.6712 9.94811 52.4464C4.98283 48.2146 2.51706 43.8045 2.863 39.4223C3.20893 35.0401 6.3478 30.9236 11.9375 27.2451C17.5181 23.5725 25.4563 20.3965 35.1993 17.8817C54.6795 12.8535 81.2597 10.4971 110.316 12.0199C139.372 13.5427 165.363 18.6542 183.892 25.6743C193.159 29.1855 200.533 33.1639 205.49 37.3887C210.455 41.6205 212.921 46.0306 212.575 50.4128Z" stroke="#CA1B1D"/>
<path d="M224.386 66.642C223.275 70.9646 219.356 74.7206 213.009 77.7754C206.672 80.825 198.012 83.1249 187.624 84.5718C166.854 87.4646 139.293 86.9312 109.873 82.2715C80.4527 77.6118 54.7835 69.7143 37.0662 60.7257C28.2049 56.23 21.3584 51.4742 17.023 46.7343C12.6801 41.9863 10.9223 37.3312 12.0329 33.0086C13.1435 28.6861 17.0625 24.9301 23.4102 21.8753C29.747 18.8257 38.4063 16.5258 48.7945 15.0789C69.5645 12.1861 97.1257 12.7195 126.546 17.3792C155.966 22.0389 181.635 29.9363 199.353 38.925C208.214 43.4206 215.06 48.1765 219.396 52.9163C223.739 57.6643 225.496 62.3195 224.386 66.642Z" stroke="#CA1B1D"/>
</svg>
