<svg width="320" height="100" viewBox="0 0 320 100" fill="none" xmlns="http://www.w3.org/2000/svg">
<path d="M291.716 50.4199C291.484 52.5708 290.312 54.6737 288.214 56.7145C286.113 58.7582 283.106 60.716 279.265 62.5595C271.585 66.2462 260.671 69.4295 247.295 71.9479C220.551 76.9832 184.077 79.3403 144.218 77.8166C104.36 76.2929 68.6945 71.1781 43.2563 64.148C30.5333 60.6319 20.3956 56.6439 13.5733 52.4028C10.162 50.2821 7.60156 48.1115 5.95838 45.9246C4.31766 43.741 3.60865 41.5661 3.84143 39.4152C4.07421 37.2643 5.24617 35.1614 7.34408 33.1206C9.44512 31.0769 12.4523 29.1191 16.2927 27.2756C23.9729 23.5889 34.8868 20.4056 48.2628 17.8872C75.0068 12.8519 111.481 10.4948 151.339 12.0185C191.198 13.5422 226.863 18.657 252.302 25.6871C265.025 29.2032 275.162 33.1912 281.985 37.4323C285.396 39.553 287.956 41.7236 289.6 43.9105C291.24 46.0941 291.949 48.269 291.716 50.4199Z" stroke="#949494"/>
<path d="M307.903 66.6629C306.401 70.9277 301.063 74.6933 292.295 77.7712C283.576 80.8319 271.673 83.1363 257.412 84.5851C228.9 87.4817 191.083 86.9465 150.727 82.2842C110.371 77.6219 75.1486 69.7189 50.8272 60.7185C38.6629 56.217 29.2509 51.45 23.2854 46.6928C17.2866 41.909 14.9149 37.2526 16.4171 32.9878C17.9194 28.723 23.2577 24.9574 32.0258 21.8795C40.7451 18.8188 52.6479 16.5144 66.9082 15.0656C95.4203 12.169 133.238 12.7042 173.594 17.3665C213.95 22.0288 249.172 29.9317 273.493 38.9322C285.658 43.4337 295.07 48.2006 301.035 52.9578C307.034 57.7417 309.406 62.3981 307.903 66.6629Z" stroke="#949494"/>
</svg>
