<svg width="23" height="22" viewBox="0 0 23 22" fill="none" xmlns="http://www.w3.org/2000/svg">
<path d="M22 6.55556V15.4444C22 16.9179 21.3854 18.3309 20.2915 19.3728C19.1975 20.4147 17.7138 21 16.1667 21H6.83333C5.28624 21 3.80251 20.4147 2.70854 19.3728C1.61458 18.3309 1 16.9179 1 15.4444V6.55556C1 5.08213 1.61458 3.66905 2.70854 2.62718C3.80251 1.58532 5.28624 1 6.83333 1H16.1667C17.7138 1 19.1975 1.58532 20.2915 2.62718C21.3854 3.66905 22 5.08213 22 6.55556Z" stroke="#232323" stroke-width="1.5" stroke-linecap="round" stroke-linejoin="round"/>
<path d="M9.77745 20.9996V10.9996C9.77745 8.56851 10.3886 6.55518 14.6663 6.55518M7.33301 12.1107H14.6663" stroke="#232323" stroke-width="1.5" stroke-linecap="round" stroke-linejoin="round"/>
</svg>
