<svg width="127" height="62" viewBox="0 0 127 62" fill="none" xmlns="http://www.w3.org/2000/svg">
<path d="M14.7 33.2C14.65 33.35 14.65 33.5 14.65 33.65C14.65 33.7 14.65 33.75 14.65 33.8C14.75 34.05 14.75 34.25 14.6 34.4C14.6 34.45 14.6 34.5 14.6 34.6C14.55 34.75 14.55 34.9 14.55 35.05C14.55 35.3 14.6 35.55 14.65 35.8C14.65 35.95 14.6 36.05 14.6 36.2C14.6 36.4 14.6 36.55 14.6 36.7C14.6 36.75 14.55 36.8 14.5 36.85C14.45 36.8 14.4 36.75 14.3 36.7C14.35 36.8 14.35 36.85 14.4 36.9C14.65 37.1 14.65 37.2 14.45 37.25C14.7 37.5 14.7 37.5 14.5 37.7C14.45 37.75 14.45 37.85 14.45 37.9C14.45 38.05 14.55 38.25 14.5 38.35C14.4 38.65 14.55 39 14.5 39.3C14.5 39.4 14.4 39.5 14.4 39.65C14.35 39.85 14.35 40.05 14.35 40.3C14.35 40.4 14.35 40.5 14.35 40.6C14.4 41.15 14.5 41.75 14.55 42.3C14.55 42.45 14.55 42.6 14.55 42.75C14.55 42.85 14.55 42.95 14.65 43.1C14.65 43.05 14.65 43 14.65 43C14.7 42.95 14.75 42.95 14.75 42.95C14.8 42.95 14.8 43 14.85 43.05C14.85 43.35 14.8 43.65 14.85 43.95C14.85 44.15 14.95 44.35 15 44.55C15.05 44.65 15.15 44.8 15.2 44.95C15.2 45.1 15.3 45.25 15 45.2C14.9 45.15 14.8 45.3 14.65 45.15H14.55C14.5 45.35 14.3 45.25 14.15 45.2C14.05 45.2 13.95 45.2 13.9 45.2C13.75 45.15 13.6 45.1 13.45 45.05C13.2 45 13 44.95 12.9 44.65L12.85 44.6C12.55 44.55 12.6 44.3 12.5 44.2C12.4 44 12.45 43.9 12.5 43.75C12.5 43.55 12.45 43.35 12.4 43.15C12.4 42.9 12.35 42.65 12.35 42.45C12.35 42.05 12.4 41.65 12.45 41.25C12.45 41.05 12.4 40.85 12.4 40.7C12.45 40.55 12.5 40.45 12.55 40.25C12.55 40 12.55 39.75 12.55 39.5C12.55 39.2 12.45 38.85 12.7 38.65C12.75 38.65 12.75 38.5 12.7 38.4C12.5 38.05 12.65 37.75 12.65 37.4C12.65 37.15 12.65 36.9 12.7 36.65C12.7 36.6 12.7 36.6 12.75 36.6C12.9 36.55 12.95 36.5 12.85 36.3C12.85 36.2 12.75 36.1 12.75 36C12.8 35.7 12.8 35.45 12.85 35.25C12.85 35 13 34.8 12.9 34.55C12.8 34.2 12.85 33.9 12.85 33.65C12.9 33.45 12.85 33.3 13 33.15C13.1 33.1 13 32.8 13 32.65C12.95 32.5 12.9 32.3 12.9 32.15C12.9 31.9 13 31.7 13 31.45C13.05 31.35 12.95 31.25 12.95 31.15C12.95 30.9 13 30.65 13.05 30.45C13.05 30.25 13 30.05 13 29.9C13.05 29.6 13.1 29.3 13.15 28.95C13.15 28.65 13.1 28.3 13.1 27.95C13.1 27.9 13.15 27.8 13.15 27.75C13.2 27.55 13.25 27.35 13.25 27.15C13.25 27.1 13.25 27.05 13.25 27C13.25 26.95 13.25 26.9 13.25 26.9C13.5 26.85 13.35 26.55 13.4 26.35C13.45 26.2 13.3 26 13.25 25.8C13.25 25.75 13.25 25.7 13.25 25.65C13.3 25.45 13.45 25.3 13.5 25.05C13.5 24.95 13.5 24.8 13.5 24.65C13.5 24.6 13.5 24.55 13.5 24.55C13.65 24.4 13.6 24.25 13.6 24.1C13.55 23.8 13.5 23.8 13.25 23.8C12.8 23.9 12.3 24 11.85 24.05C11.4 24.1 10.9 24.15 10.45 24.25C10 24.3 9.55 24.4 9.05 24.4C8.6 24.4 8.2 24.55 7.75 24.6C7.25 24.65 6.75 24.7 6.25 24.75C5.7 24.85 5.2 24.9 4.7 24.95C4.2 25 3.75 25.05 3.3 25.1C3.1 25.1 2.9 25.2 2.7 25.2C2.5 25.25 2.35 25.25 2.2 25.25C1.75 25.25 1.3 25.2 0.900001 25.25C0.750001 25.25 0.600002 25.3 0.450001 25.1C0.300001 24.95 0.200002 24.7 0.350001 24.55C0.650001 24.65 0.800001 24.35 1.1 24.45C1.15 24.45 1.2 24.45 1.2 24.45C1.4 24.6 1.5 24.6 1.45 24.4C1.45 24.35 1.5 24.3 1.55 24.3C1.7 24.3 1.85 24.35 1.85 24.15C1.85 24.15 2 24.15 2.1 24.2C2.25 24.2 2.45 24.3 2.45 24.05C2.5 23.9 2.7 24 2.8 24.05C3 24.15 3.05 24.15 3 24C2.95 23.85 3 23.85 3.1 23.85C3.4 23.8 3.65 23.75 3.95 23.75C4.3 23.7 4.65 23.65 5 23.65C5.15 23.65 5.3 23.7 5.4 23.65C5.6 23.55 5.9 23.5 6.2 23.55C6.4 23.55 6.55 23.45 6.7 23.4C6.8 23.4 6.9 23.4 7 23.4C7.05 23.4 7.1 23.35 7.1 23.35C7.1 23.3 7.1 23.25 7.1 23.25C7.15 23.2 7.2 23.15 7.2 23.2C7.45 23.35 7.5 23 7.75 23.15C7.85 23.15 7.95 23.15 8 23.15C8.05 23.05 8.1 23.05 8.2 23.05C8.45 23.05 8.65 23 8.85 22.95C9.2 22.85 9.2 22.85 9.45 22.9C9.4 22.9 9.35 22.9 9.35 22.95C9.35 22.95 9.35 23.05 9.4 23.05C9.55 23.15 9.75 23.05 9.75 22.9C9.7 22.7 9.8 22.7 10 22.75C10.25 22.75 10.45 22.65 10.65 22.6C10.7 22.6 10.7 22.55 10.75 22.55C11.05 22.7 11.3 22.5 11.6 22.5C11.6 22.55 11.65 22.5 11.7 22.5C11.8 22.4 11.9 22.35 12.1 22.4C12.15 22.45 12.25 22.4 12.3 22.4C12.4 22.4 12.55 22.35 12.65 22.35C12.85 22.3 13.1 22.2 13.35 22.15C13.4 22.15 13.5 22.1 13.6 22.1C13.65 22.05 13.7 22 13.7 21.95C13.7 21.75 13.7 21.55 13.7 21.3C13.75 21.05 13.75 20.8 13.75 20.55C13.75 20.4 13.9 20.35 13.8 20.15H13.85L13.9 20.2C13.95 20.15 13.95 20.05 13.95 19.95C13.95 19.9 13.95 19.8 13.95 19.75C13.95 19.5 13.95 19.25 13.95 19C13.95 18.95 13.9 18.9 13.9 18.8C14 18.35 14.05 17.85 14.15 17.35C14.15 17.05 14.2 16.8 14.2 16.55C14.2 16.35 14.2 16.2 14.4 16.15C14.45 16.1 14.45 16.1 14.45 16.05C14.2 15.9 14.35 15.8 14.35 15.65C14.35 15.5 14.35 15.3 14.35 15.15C14.35 15.05 14.4 15.05 14.45 15C14.5 15.05 14.5 15.1 14.55 15.25C14.55 15.15 14.6 15.15 14.6 15.1C14.6 14.9 14.6 14.75 14.5 14.6C14.35 14.35 14.45 14.2 14.45 14C14.45 13.9 14.45 13.8 14.5 13.75C14.5 13.7 14.55 13.65 14.6 13.65C14.75 13.65 14.75 13.6 14.7 13.5C14.5 13.15 14.65 12.9 14.65 12.65C14.7 12.65 14.75 12.65 14.75 12.65C14.8 12.75 14.85 12.8 14.9 12.85C14.9 12.8 14.9 12.75 14.9 12.65C14.9 12.4 14.85 12.15 14.85 11.9C14.85 11.9 14.9 11.9 14.95 11.85C15.05 11.75 15.05 11.6 15 11.4C15 11.25 14.95 11.1 14.9 10.95C14.9 10.9 14.9 10.85 14.95 10.8C14.95 10.85 15 10.9 15.05 10.95C15.05 10.9 15.1 10.85 15.05 10.85C15 10.7 15 10.6 14.95 10.45C14.85 10.15 15.15 10.05 15.05 9.75C15.2 9.7 15.1 9.5 15.1 9.35C15.1 9.3 15.15 9.25 15.15 9.2C15.25 9.05 15.15 9 15.1 8.85C15.05 8.7 15.15 8.55 15.15 8.45C15.15 8.35 15.15 8.3 15.15 8.25C15.2 7.85 15.05 7.35 15.5 7.15C15.55 7.1 15.65 7.1 15.75 7.1C15.8 7.05 15.95 7.05 15.75 6.9C15.65 6.8 15.6 6.7 15.75 6.6C16 6.4 16 6.1 15.85 5.7C15.75 5.45 15.75 5.2 15.85 4.95C15.85 4.85 15.8 4.65 15.8 4.5C15.8 4.45 15.8 4.4 15.8 4.3C15.8 4.15 15.65 4.1 15.5 4.1C15.45 4.1 15.35 4.05 15.25 4C15.2 4.05 15.2 4.25 14.95 4.1C14.9 4.25 14.65 4.1 14.55 4.2C14.4 4.3 14.15 4.3 13.95 4.35C13.25 4.45 12.6 4.6 11.9 4.7C11.7 4.7 11.4 4.7 11.2 4.7C10.85 4.8 10.55 4.85 10.25 4.95C10.1 5 9.95 5.1 9.75 5.15C9.7 5.2 9.55 5.1 9.5 5.1C9.05 5.2 8.65 5.3 8.2 5.35C8.05 5.4 7.75 5.45 7.55 5.2C7.5 5.15 7.45 5.15 7.4 5.15C7.15 5.05 6.85 4.7 6.9 4.55C6.9 4.45 7 4.35 7.05 4.25C7.15 4.1 7.3 4 7.55 4.05C7.6 4.05 7.65 4.05 7.7 4C7.8 3.9 7.85 3.8 8.1 3.95C8.1 3.95 8.2 3.85 8.25 3.8C8.3 3.85 8.45 3.9 8.45 3.9C8.5 3.85 8.7 3.9 8.55 3.7C8.6 3.7 8.7 3.65 8.7 3.65C8.85 3.75 8.85 3.65 8.9 3.65C9 3.55 9.15 3.6 9.3 3.55C9.3 3.55 9.35 3.65 9.4 3.7C9.6 3.6 9.85 3.45 10.1 3.35C10.1 3.4 10.1 3.45 10.1 3.55C10.3 3.4 10.45 3.35 10.75 3.4C10.8 3.4 10.9 3.3 11 3.25C11.05 3.15 11.1 3.1 11.2 3.05C11.4 3.05 11.45 2.9 11.65 2.9C11.8 2.9 11.9 2.75 12.05 2.65C12.25 2.55 12.4 2.45 12.6 2.35C12.8 2.2 13.05 2.05 13.25 1.95C13.45 1.85 13.65 1.75 13.85 1.7C13.9 1.65 14 1.65 14 1.6C14.1 1.5 14.1 1.5 14.2 1.6C14.25 1.6 14.35 1.6 14.35 1.6C14.45 1.45 14.65 1.5 14.8 1.55C15 1.6 15.15 1.55 15.3 1.45C15.4 1.35 15.6 1.35 15.75 1.35C15.85 1.35 16 1.45 16 1.6C16.05 1.7 16.15 1.8 16.2 1.9C16.2 1.95 16.3 2.05 16.3 2.1C16.45 2.35 16.55 2.45 16.8 2.35C16.9 2.35 17.05 2.35 17 2.55C17 2.55 17 2.6 17.05 2.65C17.1 2.65 17.15 2.65 17.15 2.6C17.25 2.55 17.35 2.4 17.45 2.35C17.55 2.35 17.65 2.35 17.8 2.3C17.9 2.25 18.1 2.25 18.25 2.2C18.25 2.2 18.3 2.25 18.35 2.25C18.4 2.25 18.45 2.3 18.5 2.3C18.65 2.25 18.8 2.15 19 2.15C19.2 2.15 19.35 2.1 19.5 2.05C19.65 2.05 19.75 2 19.8 2.2C19.9 2.35 20.1 2.35 20.2 2.4C20.25 2.35 20.25 2.3 20.25 2.25C20.3 2.15 20.25 2 20.3 2C20.45 1.95 20.65 1.9 20.85 1.9C21.1 1.9 21.25 1.85 21.45 1.85C21.7 1.8 21.9 1.8 22.1 1.8C22.15 1.75 22.25 1.8 22.25 1.75C22.3 1.7 22.35 1.55 22.5 1.75C22.55 1.75 22.65 1.7 22.75 1.7C22.85 1.7 22.95 1.65 23 1.65C23.05 1.65 23.1 1.6 23.15 1.6C23.25 1.55 23.35 1.5 23.5 1.5C23.75 1.55 23.95 1.45 24.25 1.45C24.65 1.5 24.95 1.35 25.35 1.3C25.35 1.3 25.4 1.3 25.45 1.35C25.7 1.45 25.8 1.35 26 1.3C26.1 1.2 26.25 1.2 26.4 1.2C26.65 1.2 26.9 1.2 27.15 1.2C27.2 1.2 27.25 1.15 27.25 1.1C27.3 1.1 27.35 1.1 27.4 1.1C27.55 1.05 27.7 1.05 27.85 1C27.9 1 27.95 0.950001 28.05 0.950001C28.4 1 28.6 0.899999 28.9 0.8C29 0.750001 29 0.6 29.25 0.649999C29.4 0.700001 29.55 0.55 29.65 0.500001C29.8 0.399999 29.95 0.399999 30.1 0.500001C30.2 0.55 30.3 0.55 30.35 0.6C30.4 0.6 30.45 0.6 30.45 0.6C30.55 0.899999 30.65 0.750001 30.8 0.750001C31.05 0.750001 31.6 1 31.75 1.25C31.85 1.35 31.85 1.5 31.85 1.6C31.9 1.7 31.85 1.75 31.8 1.85C31.7 2.1 31.45 2.1 31.25 2.15C31.2 2.15 31.2 2.2 31.15 2.2C31.15 2.25 31.1 2.3 31.05 2.3C30.6 2.35 30.15 2.4 29.7 2.45C28.95 2.5 28.25 2.6 27.55 2.65C27.25 2.7 26.9 2.65 26.55 2.65C26.5 2.65 26.45 2.65 26.4 2.7C26.35 2.75 26.3 2.8 26.15 2.7C26.15 2.7 26.1 2.7 26.05 2.75C26.05 2.8 26 2.85 25.9 2.75H25.85C25.75 2.95 25.45 2.85 25.3 2.9C25.2 2.9 25.15 2.9 25.05 2.85C24.85 2.75 24.7 2.75 24.6 2.9C24.55 2.95 24.45 3.1 24.25 2.9H24.15C24 3.1 23.7 3.05 23.45 3.1C23.4 3.1 23.35 3.1 23.25 3.1C22.95 3.15 22.6 3.15 22.25 3.2C22.2 3.2 22.1 3.2 22 3.2C21.95 3.2 21.9 3.2 21.9 3.2C21.75 3.25 21.65 3.3 21.55 3.35C21.5 3.35 21.45 3.35 21.4 3.35C21.2 3.2 21.25 3.25 21.15 3.35C21.05 3.45 20.85 3.45 20.65 3.45C20.6 3.45 20.5 3.45 20.45 3.45C20.3 3.55 20.2 3.6 19.95 3.5C19.95 3.45 19.9 3.45 19.9 3.45C19.8 3.6 19.55 3.5 19.45 3.6H19.35C19.3 3.6 19.25 3.55 19.2 3.55C19.05 3.75 18.7 3.65 18.45 3.75C18.45 3.7 18.4 3.7 18.4 3.65C18.4 3.65 18.4 3.65 18.35 3.65C18.4 3.7 18.45 3.7 18.45 3.75C18.3 3.75 18.15 3.8 18 3.8C17.9 3.8 17.8 3.75 17.7 3.75C17.65 3.75 17.55 3.75 17.5 3.8C17.4 3.95 17.25 3.95 17.05 3.8C17.05 4.3 17.05 4.75 17 5.25C17 5.45 16.95 5.7 16.95 5.95C16.95 6.1 17 6.25 17 6.35C17.05 6.45 17.05 6.55 17 6.6C16.85 6.7 16.9 6.8 17 6.95C17.1 7.05 17.25 7.15 17.15 7.3C17.1 7.3 17.15 7.4 17.15 7.45C17.25 7.75 17.4 8.05 17.25 8.35C17.25 8.4 17.3 8.55 17.25 8.6C17 8.75 17.1 9 17.25 9.25C17.25 9.3 17.35 9.45 17.15 9.35C17.1 9.4 17.05 9.5 17.05 9.6C17 9.7 16.95 9.85 16.9 9.95C16.85 10.05 16.85 10.1 16.8 10.2C16.75 10.6 16.7 11 16.6 11.4C16.55 11.85 16.45 12.35 16.4 12.8C16.35 13.05 16.3 13.25 16.35 13.55C16.35 13.65 16.2 13.75 16.1 13.9C16.1 13.7 16.05 13.5 16.1 13.3C16.15 12.9 16.2 12.5 16.25 12.1C16.25 12.05 16.2 12 16.2 11.9H16.15C16.1 12.3 15.95 12.65 15.95 13.05C15.95 13.1 15.9 13.15 15.9 13.2C15.85 13.2 15.85 13.15 15.85 13.15C15.8 13.15 15.8 13.15 15.8 13.15C15.85 13.15 15.85 13.2 15.9 13.2C15.9 13.35 15.95 13.5 15.95 13.6C15.95 13.8 15.9 14 15.9 14.2C15.8 14.25 15.75 14.25 15.65 14.3C15.65 14.25 15.65 14.2 15.65 14.15C15.65 14.15 15.65 14.1 15.65 14.05H15.6C15.6 14.1 15.55 14.1 15.55 14.15C15.55 14.2 15.6 14.25 15.65 14.3C15.65 14.35 15.65 14.4 15.6 14.4C15.6 14.45 15.5 14.4 15.45 14.35C15.45 14.4 15.4 14.45 15.4 14.5C15.4 14.55 15.45 14.6 15.45 14.6C15.5 14.65 15.55 14.65 15.55 14.65C15.65 14.5 15.8 14.6 16 14.7C15.95 14.5 15.95 14.35 15.9 14.2C15.95 14.1 16 14 16.1 13.85C16.15 13.95 16.2 14 16.3 14.1V14.2C16.1 14.2 16.2 14.35 16.15 14.45C16.15 14.65 16.1 14.85 16 15C16 15.15 16 15.25 16.1 15.4C16 15.45 15.95 15.45 15.9 15.5C15.9 15.45 15.9 15.35 15.85 15.25C15.85 15.2 15.85 15.15 15.8 15.1C15.75 15.1 15.7 15.1 15.7 15.15C15.65 15.35 15.65 15.55 15.65 15.75V15.8C15.4 15.9 15.6 16.2 15.55 16.4C15.45 16.6 15.5 16.85 15.5 17.1C15.5 17.15 15.5 17.2 15.5 17.25C15.5 17.3 15.55 17.35 15.6 17.4C15.6 17.35 15.65 17.35 15.65 17.3C15.7 17.25 15.7 17.2 15.75 17.15C15.8 17.6 15.65 17.95 15.6 18.35V18.4C15.6 18.15 15.6 17.9 15.6 17.65C15.6 17.6 15.55 17.55 15.55 17.45C15.5 17.5 15.45 17.55 15.45 17.6C15.3 17.8 15.4 18.1 15.35 18.35C15.35 18.4 15.35 18.45 15.35 18.5C15.15 18.75 15.25 19.05 15.2 19.3C15.15 19.6 15.3 20 15.05 20.2C15 20.25 15.15 20.5 15.1 20.6C15.05 20.95 15.2 21.35 15.05 21.7C15 21.75 15.05 21.85 15.1 21.9C15.15 21.95 15.3 22 15.25 21.85H15.3C15.6 21.95 15.75 21.8 16 21.8C16.1 21.8 16.2 21.75 16.3 21.85C16.35 21.9 16.4 21.9 16.4 21.85C16.5 21.85 16.6 21.75 16.7 21.75C16.9 21.75 17.1 21.75 17.3 21.7C17.4 21.7 17.55 21.8 17.65 21.8C17.75 21.75 17.85 21.7 18 21.7C18.1 21.65 18.25 21.65 18.25 21.5L18.3 21.45C18.65 21.5 18.9 21.35 19.25 21.5C19.4 21.6 19.6 21.55 19.8 21.55C20.1 21.55 20.4 21.5 20.65 21.5C20.75 21.5 20.8 21.45 20.9 21.45C21.15 21.45 21.4 21.45 21.65 21.45C21.9 21.5 22.2 21.45 22.45 21.5C22.65 21.5 22.8 21.5 22.95 21.5C23.05 21.5 23.15 21.5 23.25 21.5C23.45 21.55 23.6 21.6 23.75 21.7C24 21.8 24.2 21.95 24.45 22.1C24.65 22.25 24.8 22.4 25 22.55C25 22.55 25 22.6 25 22.65C25 22.75 24.95 22.8 24.9 22.9C24.9 22.95 24.85 22.95 24.85 22.95C24.4 22.95 24 23.1 23.55 23.1C23.05 23.05 22.55 23.05 22.05 23.05C21.85 23.05 21.7 23.1 21.5 23.1C21.5 23.15 21.45 23.15 21.45 23.15C21.05 23 20.8 23.15 20.45 23.15C20.15 23.15 19.9 23.2 19.6 23.2C19.35 23.2 19.15 23.1 18.95 23.25C18.75 23.35 18.45 23.25 18.2 23.25C17.8 23.3 17.45 23.35 17.05 23.35C16.8 23.4 16.5 23.4 16.2 23.4C15.95 23.45 15.7 23.5 15.45 23.5C15.25 23.55 15.2 23.65 15.25 23.85C15.25 23.9 15.2 23.95 15.2 24C15.15 23.95 15.15 23.9 15.1 23.85C15.1 23.8 15.1 23.8 15.1 23.75C15.05 23.7 15 23.65 14.95 23.6C14.95 23.65 14.9 23.7 14.9 23.75C14.9 23.8 14.9 23.85 14.85 23.95C14.85 23.9 14.8 23.9 14.8 23.9C14.75 23.8 14.65 23.75 14.55 23.65C14.55 23.75 14.5 23.8 14.5 23.9C14.5 24.3 14.5 24.7 14.45 25.1C14.45 25.15 14.4 25.25 14.35 25.25C14.2 25.25 14.25 25.3 14.25 25.4C14.3 25.7 14.4 26.05 14.25 26.3C14.2 26.35 14.2 26.5 14.2 26.55C14.25 26.9 14.35 27.25 14.3 27.55C14.25 27.85 14.45 28.3 14.2 28.5C14.3 28.75 14.1 28.95 14.3 29.2C14.35 29.35 14.3 29.4 14.15 29.4C14 29.4 14 29.45 14.05 29.6C14.1 29.85 14.25 30.2 14.15 30.4C14.05 30.65 14.1 30.95 14.1 31.2C14.1 31.3 14.1 31.4 14.1 31.5V31.55C13.9 31.9 14 32.3 13.95 32.7C13.95 33.05 13.95 33.45 13.9 33.85C13.9 34.2 13.85 34.5 13.8 34.85C13.8 34.95 13.8 35.05 13.85 35.15V35.2C13.65 35.4 13.95 35.65 13.9 35.9C13.85 36.2 13.95 36.55 13.85 36.8C13.75 36.95 13.8 37.15 13.8 37.35C13.8 37.4 13.8 37.45 13.85 37.55H13.9C13.95 37.4 13.95 37.3 13.95 37.15C13.95 36.8 13.9 36.5 14.05 36.2C14.1 36.1 14.05 35.9 14 35.75C14 35.7 13.95 35.65 14 35.6C14 35.35 14.05 35.1 14.1 34.85C14.1 34.4 14.1 33.9 14.1 33.45C14.1 33.2 14.15 33 14.15 32.8C14.15 32.75 14.1 32.7 14.1 32.65C14.15 32.55 14.15 32.5 14.25 32.5C14.3 32.45 14.4 32.4 14.45 32.55C14.45 32.6 14.45 32.6 14.4 32.65C14.45 32.65 14.45 32.65 14.45 32.65C14.45 32.6 14.45 32.6 14.45 32.55C14.45 32.5 14.5 32.45 14.5 32.4C14.5 32.4 14.45 32.3 14.4 32.3C14.25 32.25 14.15 32.15 14.2 32.05C14.2 31.75 14.25 31.45 14.25 31.15C14.25 30.95 14.3 30.8 14.3 30.6C14.3 30.2 14.35 29.85 14.35 29.45C14.4 29.15 14.4 28.8 14.4 28.45C14.45 28.1 14.45 27.75 14.45 27.35C14.5 27.3 14.55 27.3 14.55 27.25C14.6 27.3 14.65 27.4 14.65 27.45C14.65 27.6 14.65 27.75 14.65 27.85C14.7 27.9 14.75 27.9 14.75 27.9C14.75 27.8 14.8 27.7 14.8 27.55C14.85 27.55 14.85 27.6 14.9 27.6C14.9 27.85 14.85 28.05 14.85 28.3C14.85 28.7 14.85 29.05 14.8 29.45C14.8 29.5 14.85 29.55 14.85 29.6C14.9 29.7 14.95 29.85 14.8 29.9C14.75 29.9 14.75 29.95 14.75 30C14.85 30.25 14.8 30.45 14.8 30.65C14.8 31 14.8 31.35 14.8 31.65C14.8 31.8 14.7 31.9 14.65 32C14.6 31.9 14.55 31.8 14.45 31.65C14.45 31.75 14.4 31.85 14.35 31.95C14.45 32 14.55 32 14.6 32H14.65C14.8 32.25 14.8 32.4 14.7 32.55C14.65 32.6 14.65 32.7 14.65 32.75C14.65 32.9 14.65 33.05 14.7 33.2C14.6 33.1 14.55 32.95 14.5 32.85C14.45 32.85 14.45 32.8 14.4 32.75C14.4 32.8 14.35 32.8 14.35 32.85C14.35 33.05 14.55 33.1 14.7 33.2ZM14.6 29.15C14.65 28.95 14.75 28.75 14.75 28.5C14.75 28.35 14.7 28.15 14.7 27.95C14.65 27.95 14.65 27.95 14.6 27.95C14.55 28.35 14.55 28.75 14.6 29.15C14.6 29.25 14.55 29.3 14.55 29.4C14.6 29.45 14.65 29.55 14.7 29.6H14.75C14.7 29.45 14.65 29.3 14.6 29.15ZM14.6 29.95C14.55 30.05 14.5 30.2 14.5 30.3C14.45 30.65 14.45 31 14.45 31.35C14.45 31.4 14.5 31.45 14.5 31.5C14.55 31.45 14.6 31.4 14.55 31.4C14.5 31.05 14.7 30.85 14.6 30.55V30.5C14.6 30.3 14.6 30.1 14.6 29.9C14.6 29.85 14.65 29.75 14.65 29.65C14.65 29.65 14.6 29.65 14.55 29.65C14.55 29.75 14.6 29.85 14.6 29.95ZM14.3 37.05C14.3 37.05 14.3 37 14.25 37C14.25 37 14.15 37 14.15 37.05C14.15 37.15 14.1 37.3 14.1 37.5C14.1 37.65 14.15 37.8 14.15 37.95C14.2 38 14.2 38.05 14.2 38.1C14.25 38.05 14.3 38.05 14.3 38C14.3 37.7 14.3 37.4 14.3 37.05ZM14.35 34.6C14.4 34.6 14.4 34.6 14.45 34.6C14.45 34.55 14.5 34.5 14.5 34.4C14.5 34.2 14.5 34 14.5 33.75C14.5 33.7 14.5 33.65 14.45 33.6C14.45 33.55 14.4 33.55 14.35 33.5C14.35 33.55 14.35 33.55 14.35 33.6C14.3 33.9 14.3 34.2 14.3 34.45C14.3 34.5 14.35 34.6 14.35 34.6ZM13.65 40.6C13.7 40.6 13.7 40.6 13.75 40.6C13.7 40.25 13.7 39.95 13.7 39.6C13.7 39.55 13.7 39.5 13.65 39.45C13.65 39.5 13.6 39.55 13.6 39.6C13.65 39.85 13.65 40.05 13.6 40.3C13.55 40.4 13.65 40.5 13.65 40.6ZM14.15 40.2H14.2C14.2 40 14.2 39.8 14.2 39.55C14.2 39.5 14.2 39.45 14.15 39.4C14.1 39.45 14.05 39.5 14.05 39.55C14.05 39.7 14.05 39.9 14.1 40.1C14.1 40.1 14.1 40.15 14.15 40.2ZM14.8 20.95C14.75 20.9 14.75 20.9 14.7 20.9C14.75 21.2 14.6 21.5 14.7 21.85C14.7 21.85 14.75 21.9 14.8 21.9C14.8 21.9 14.85 21.85 14.85 21.8C14.85 21.6 14.8 21.35 14.8 21.1C14.8 21.05 14.8 21 14.8 20.95ZM14.45 34.85C14.4 34.85 14.35 34.8 14.35 34.75C14.3 34.8 14.25 34.8 14.25 34.8C14.25 35 14.25 35.15 14.25 35.3C14.25 35.35 14.35 35.4 14.35 35.4C14.4 35.4 14.45 35.35 14.45 35.35C14.45 35.2 14.45 35.05 14.45 34.85ZM14.25 36.1C14.45 36 14.45 35.9 14.3 35.65C14.25 35.85 14.25 35.95 14.25 36.1ZM14.15 38.75C14.2 38.75 14.2 38.75 14.2 38.75C14.25 38.6 14.25 38.45 14.25 38.3C14.25 38.25 14.2 38.2 14.15 38.2L14.1 38.25C14.1 38.4 14.15 38.55 14.15 38.75ZM13.7 39.1C13.75 39.1 13.8 39.15 13.8 39.15C13.8 39 13.8 38.8 13.8 38.65C13.75 38.65 13.75 38.65 13.7 38.65C13.7 38.8 13.7 38.95 13.7 39.1ZM15.8 13.3C15.75 13.25 15.7 13.25 15.65 13.25C15.65 13.35 15.65 13.45 15.6 13.55C15.65 13.55 15.65 13.6 15.7 13.6C15.75 13.5 15.75 13.4 15.8 13.3ZM15.15 17.55C15.1 17.5 15.1 17.5 15.05 17.5C15.05 17.6 15.05 17.7 15.05 17.8C15.1 17.85 15.1 17.85 15.15 17.85C15.15 17.75 15.15 17.65 15.15 17.55ZM15.65 12.9L15.7 12.95C15.75 12.9 15.8 12.8 15.85 12.75C15.85 12.75 15.8 12.7 15.75 12.7C15.7 12.75 15.7 12.8 15.65 12.9ZM15.1 18C15.05 18 15.05 18 15 17.95C15 18.1 15 18.2 14.95 18.3C15 18.3 15 18.3 15.05 18.35C15.05 18.2 15.05 18.1 15.1 18ZM16.2 11.35C16.2 11.4 16.25 11.4 16.3 11.4C16.3 11.35 16.3 11.3 16.3 11.25C16.3 11.25 16.25 11.25 16.25 11.2C16.25 11.25 16.2 11.3 16.2 11.35ZM15 18.6C14.95 18.6 14.95 18.6 14.9 18.6C14.95 18.65 15 18.75 15.05 18.85C15.05 18.8 15.1 18.8 15.1 18.8C15.05 18.75 15.05 18.65 15 18.6ZM14.85 20.45C14.85 20.4 14.9 20.35 14.9 20.3L14.8 20.25C14.75 20.25 14.75 20.3 14.75 20.35C14.75 20.35 14.8 20.4 14.85 20.45ZM13.65 36.5H13.7C13.7 36.45 13.7 36.4 13.7 36.3C13.7 36.3 13.65 36.3 13.6 36.3C13.6 36.35 13.65 36.4 13.65 36.5ZM16.3 10.95C16.25 10.95 16.25 10.95 16.25 10.95C16.25 11 16.25 11.1 16.3 11.15C16.3 11.1 16.4 11.1 16.4 11.1C16.35 11.05 16.3 11 16.3 10.95ZM13.75 38.5C13.8 38.5 13.8 38.5 13.85 38.5C13.8 38.45 13.8 38.4 13.8 38.35C13.8 38.35 13.8 38.3 13.75 38.3C13.75 38.35 13.75 38.45 13.75 38.5ZM14.25 39.25C14.2 39.2 14.15 39.2 14.15 39.2V39.25C14.15 39.3 14.15 39.3 14.2 39.3C14.2 39.3 14.25 39.3 14.25 39.25ZM15.8 14.9C15.8 14.9 15.8 14.9 15.85 14.9C15.8 14.85 15.8 14.8 15.8 14.75H15.75C15.75 14.8 15.8 14.85 15.8 14.9ZM13.6 33.7C13.65 33.7 13.65 33.7 13.7 33.65C13.65 33.65 13.65 33.6 13.6 33.55H13.55C13.55 33.6 13.6 33.65 13.6 33.7ZM13.65 34.55C13.6 34.55 13.6 34.55 13.55 34.5C13.55 34.55 13.55 34.6 13.55 34.65C13.6 34.65 13.6 34.65 13.6 34.65C13.6 34.65 13.65 34.6 13.65 34.55ZM14.75 20.65L14.8 20.7C14.8 20.65 14.8 20.6 14.85 20.6C14.8 20.55 14.75 20.55 14.75 20.55C14.75 20.6 14.75 20.65 14.75 20.65ZM14.5 33.35C14.45 33.35 14.45 33.35 14.4 33.35C14.4 33.35 14.4 33.35 14.4 33.4H14.45C14.45 33.4 14.45 33.4 14.5 33.35ZM15.95 11.75C15.95 11.75 15.95 11.8 15.9 11.8C15.95 11.8 15.95 11.8 15.95 11.85C16 11.85 16 11.8 16 11.8C16 11.8 15.95 11.8 15.95 11.75ZM14.85 20C14.85 20 14.85 19.95 14.8 19.95C14.8 19.95 14.75 19.95 14.75 20C14.8 20 14.8 20.05 14.8 20.05C14.85 20.05 14.85 20.05 14.85 20ZM14.05 40.85C14.05 40.9 14.05 40.9 14.05 40.95H14.1C14.1 40.95 14.1 40.9 14.05 40.85ZM15.15 16.75C15.2 16.75 15.2 16.75 15.2 16.7H15.15V16.75ZM14.8 24.25C14.8 24.85 14.75 25.4 14.75 26C14.7 25.95 14.65 25.95 14.6 25.95C14.6 25.85 14.55 25.75 14.55 25.6C14.5 25.6 14.5 25.55 14.5 25.5C14.45 25.45 14.45 25.4 14.45 25.4C14.7 25.25 14.65 24.95 14.65 24.7C14.7 24.55 14.6 24.35 14.75 24.25H14.8ZM14.65 26.2C14.65 26.35 14.65 26.5 14.65 26.65C14.65 26.7 14.65 26.8 14.6 26.85C14.6 26.9 14.55 26.95 14.5 27C14.5 26.95 14.45 26.9 14.45 26.85C14.45 26.65 14.45 26.5 14.45 26.35C14.5 26.3 14.55 26.25 14.55 26.15C14.6 26.2 14.6 26.2 14.65 26.2ZM15.9 15.5C15.9 15.7 15.95 15.85 15.95 16.05C15.95 16.1 15.85 16.1 15.8 16.15C15.8 16.1 15.75 16.05 15.75 16C15.8 15.85 15.85 15.65 15.9 15.5ZM15.45 20.3C15.4 20.5 15.35 20.7 15.35 20.85C15.35 20.9 15.25 20.9 15.2 20.9C15.2 20.9 15.2 20.85 15.2 20.8C15.25 20.65 15.3 20.45 15.35 20.3C15.4 20.3 15.4 20.3 15.45 20.3ZM14.9 39.7C14.9 39.8 14.95 39.85 14.95 39.9C15 39.95 14.95 40.05 14.95 40.15C14.95 40.15 15 40.2 15 40.25C14.95 40.25 14.9 40.25 14.85 40.2C14.8 40.15 14.8 40.1 14.8 40.05C14.8 39.95 14.85 39.85 14.9 39.7ZM14.9 41.2C14.85 41.35 14.8 41.55 14.75 41.7C14.75 41.7 14.75 41.7 14.7 41.7L14.65 41.65C14.7 41.5 14.75 41.3 14.85 41.15C14.85 41.15 14.85 41.2 14.9 41.2ZM15.1 24.25C15.1 24.4 15.15 24.55 15.15 24.65H15.05C15 24.6 14.95 24.6 14.95 24.55C15 24.45 15 24.35 15.05 24.25H15.1ZM15 25.05C15.05 25.25 15.05 25.45 15.05 25.65C15 25.5 14.95 25.4 14.95 25.25C14.95 25.2 15 25.1 15 25.05ZM15.55 19C15.55 19.1 15.6 19.2 15.6 19.3V19.35C15.55 19.35 15.5 19.3 15.5 19.3C15.45 19.2 15.45 19.1 15.45 19C15.5 19 15.5 19 15.55 19ZM15.5 19.8C15.5 19.9 15.5 20.05 15.5 20.15C15.45 20.15 15.4 20.15 15.4 20.1C15.4 20 15.4 19.9 15.4 19.8C15.4 19.8 15.45 19.8 15.5 19.8ZM15.3 27.6C15.35 27.5 15.35 27.4 15.35 27.25C15.5 27.45 15.5 27.55 15.3 27.6ZM15.8 16.35C15.8 16.45 15.8 16.55 15.8 16.65H15.75C15.75 16.55 15.75 16.45 15.75 16.35C15.8 16.35 15.8 16.35 15.8 16.35ZM14.95 27.05C14.9 27.1 14.9 27.1 14.85 27.15L14.8 27.1C14.8 27.1 14.85 27.05 14.85 27C14.85 27 14.9 27.05 14.95 27.05ZM15 25.05C15 24.95 15 24.85 14.95 24.75C15 24.75 15 24.75 15.05 24.8C15.05 24.85 15.05 24.95 15 25.05ZM14.65 37.25C14.65 37.2 14.65 37.15 14.65 37.1H14.7C14.7 37.15 14.7 37.2 14.75 37.25C14.7 37.25 14.7 37.25 14.65 37.25ZM15.3 21.3C15.3 21.35 15.3 21.4 15.3 21.45H15.25C15.25 21.4 15.2 21.35 15.2 21.3C15.25 21.3 15.25 21.3 15.3 21.3ZM15.6 18.35C15.6 18.45 15.6 18.5 15.6 18.55H15.55C15.55 18.5 15.6 18.45 15.6 18.4V18.35ZM14.95 26.1L15 26.15C15 26.15 15 26.2 14.95 26.2C14.95 26.2 14.95 26.15 14.9 26.15L14.95 26.1ZM15 30.15C15 30.15 15.05 30.2 15 30.2V30.25L14.95 30.2C14.95 30.2 14.95 30.15 15 30.15ZM15 30.95C14.95 30.95 14.95 30.95 14.95 30.95C14.95 30.9 14.95 30.9 14.95 30.9C14.95 30.9 15 30.9 15 30.95ZM14.8 40.4C14.85 40.4 14.85 40.4 14.9 40.45C14.9 40.45 14.85 40.45 14.85 40.5C14.85 40.45 14.85 40.45 14.8 40.45V40.4ZM14.85 42.7C14.85 42.75 14.85 42.8 14.85 42.85C14.85 42.8 14.8 42.75 14.8 42.7C14.85 42.7 14.85 42.7 14.85 42.7ZM14.65 35.35L14.6 35.4V35.35V35.3L14.65 35.35ZM15.3 21.15C15.3 21.15 15.3 21.15 15.3 21.2C15.3 21.15 15.25 21.15 15.25 21.15C15.25 21.1 15.3 21.1 15.3 21.1C15.3 21.1 15.3 21.1 15.3 21.15ZM15.3 30.65C15.3 30.6 15.3 30.6 15.3 30.6V30.55L15.35 30.6C15.35 30.6 15.3 30.6 15.3 30.65ZM15.75 17.15C15.75 17.1 15.7 17.05 15.7 17H15.75C15.75 17.05 15.75 17.1 15.75 17.15ZM17.15 11.05C17.15 11.1 17.15 11.1 17.15 11.1C17.15 11.1 17.1 11.1 17.1 11.05C17.15 11.05 17.15 11.05 17.15 11.05ZM16.5 13.85C16.55 13.85 16.55 13.9 16.55 13.9C16.5 13.9 16.5 13.9 16.5 13.9C16.5 13.85 16.5 13.85 16.5 13.85ZM16.65 15.15H16.6C16.6 15.15 16.6 15.15 16.6 15.1C16.6 15.1 16.6 15.1 16.65 15.1V15.15ZM14.85 33.75C14.85 33.75 14.85 33.75 14.8 33.75C14.85 33.75 14.85 33.8 14.85 33.8C14.85 33.75 14.9 33.75 14.85 33.75ZM14.9 32.4C14.85 32.4 14.85 32.4 14.85 32.4C14.85 32.4 14.85 32.4 14.85 32.35C14.85 32.4 14.9 32.4 14.9 32.4ZM16.45 17.3C16.45 17.25 16.45 17.25 16.45 17.25V17.2C16.45 17.2 16.4 17.25 16.45 17.25C16.45 17.25 16.45 17.25 16.45 17.3ZM16.05 16.2C16.05 16.15 16.05 16.15 16.05 16.15C16.05 16.15 16.05 16.15 16.05 16.1C16.1 16.15 16.1 16.15 16.1 16.15C16.1 16.15 16.1 16.2 16.05 16.2Z" fill="#CA1B1D"/>
<path d="M26.8 30.75C26.8 30.75 26.85 30.8 26.9 30.9C26.95 29.75 27.05 28.55 27.1 27.4C27.15 27.45 27.2 27.45 27.2 27.5V27.45C27.1 27.35 27.1 27.2 27.15 27.15C27.15 27 27.15 26.8 27.2 26.7C27.2 26.75 27.3 26.75 27.35 26.8C27.3 26.75 27.3 26.7 27.2 26.7C27.15 26.55 27.2 26.5 27.3 26.45C27.35 26.4 27.35 26.25 27.3 26.25C27.15 25.95 27.2 25.85 27.4 25.8C27.5 25.75 27.45 25.6 27.3 25.5C27.2 25.45 27.2 25.4 27.3 25.35C27.3 25.35 27.45 25.35 27.3 25.2C27.3 25.2 27.3 25.15 27.35 25.15C27.5 25.15 27.5 25.05 27.45 24.9C27.4 24.8 27.4 24.55 27.35 24.4C27.45 24.45 27.5 24.45 27.6 24.5C27.55 24.45 27.5 24.4 27.5 24.4C27.5 24.35 27.4 24.25 27.55 24.3C27.55 24.3 27.55 24.3 27.55 24.25C27.5 24.05 27.45 24 27.4 23.95C27.4 23.9 27.4 23.9 27.4 23.9C27.55 23.7 27.45 23.55 27.5 23.4C27.5 23.35 27.45 23.2 27.6 23.35C27.6 23.25 27.6 23.25 27.6 23.2C27.6 23.15 27.55 23.1 27.55 23.1C27.6 22.9 27.6 22.65 27.6 22.45C27.6 22.45 27.6 22.4 27.6 22.35C27.5 22.1 27.6 22 27.7 21.9C27.8 21.85 27.85 21.85 27.65 21.75L27.6 21.7C27.7 21.45 27.8 21.15 27.8 20.85C27.85 20.8 27.8 20.7 27.85 20.55C27.9 20.35 27.95 20.1 28 19.95C28 19.85 28.1 19.8 28 19.55C28 19.5 28 19.5 28 19.5H28.05C28.05 19.45 28.05 19.35 28.05 19.15C28.05 19.1 28.1 19.05 28.1 18.95C28.1 18.65 28.1 18.5 28.1 18.2C28.15 18.05 28.15 17.8 28.3 17.6C28.4 17.45 28.3 17.25 28.35 17.1C28.4 17 28.4 16.95 28.5 17.1C28.25 16.8 28.45 16.7 28.4 16.5C28.4 16.4 28.5 16.35 28.5 16.3C28.5 16.25 28.55 16.25 28.55 16.2C28.55 16.1 28.45 15.95 28.6 15.95C28.65 15.95 28.6 15.9 28.6 15.9C28.6 15.9 28.6 15.75 28.6 15.6C28.6 15.5 28.6 15.45 28.6 15.45C28.65 15.2 28.8 15.05 28.8 14.95C28.8 14.95 28.8 14.95 28.8 14.9C28.8 14.65 28.8 14.7 28.85 14.65C28.9 14.65 28.85 14.55 28.85 14.55C28.8 14.45 28.8 14.35 28.85 14.35C28.95 14.25 28.95 14.25 28.95 14.15C28.9 14.05 28.95 13.85 29.05 13.75V13.7C29.05 13.65 29.05 13.65 29.05 13.65C29.05 13.6 29.05 13.55 29.1 13.55C29.1 13.45 29.1 13.45 29.15 13.45C29.15 13.45 29.15 13.45 29.1 13.4C29.1 13.3 29.05 13.25 29.1 13.2C29.15 13.1 29.2 12.95 29.25 12.75C29.4 12.5 29.55 12.25 29.6 11.85C29.7 11.7 29.75 11.5 29.85 11.4C29.95 11.15 30 10.95 30.05 10.7C30.1 10.6 30.25 10.55 30.35 10.45C30.4 10.35 30.4 10.3 30.4 10.25C30.4 10.2 30.45 10.1 30.6 10.1C30.65 10.1 30.65 10.05 30.65 10.05L30.75 9.9C30.8 9.9 30.8 10.05 30.85 10.05C30.95 10.05 31.05 10.15 31.2 10.2C31.25 10.25 31.4 10.35 31.45 10.45C31.6 10.6 31.7 10.8 31.85 11C31.9 11.05 32 11.2 32.05 11.25C32.05 11.5 32.25 11.8 32.3 11.95C32.3 12.25 32.45 12.45 32.45 12.75C32.5 12.9 32.55 13.1 32.65 13.25C32.7 13.45 32.75 13.65 32.65 13.7C32.85 13.9 32.7 14 32.7 14.1C32.7 14.1 32.7 14.1 32.7 14.15C32.85 14.25 32.8 14.45 32.8 14.55L32.85 14.65C32.85 14.75 32.9 14.95 32.85 15C32.8 15 32.85 15.05 32.85 15.15C32.85 15.25 32.85 15.4 32.85 15.45C33 15.75 32.95 15.9 32.9 16.1C32.9 16.1 32.9 16.1 32.9 16.2C32.9 16.35 32.9 16.45 32.95 16.65L32.9 16.7L32.85 16.75C33 16.9 32.9 17 32.95 17.15C33.05 17.25 33.05 17.4 32.95 17.45C32.9 17.5 32.9 17.55 32.95 17.65C33.05 17.9 33.05 18.15 32.95 18.3C32.95 18.3 32.95 18.4 32.95 18.45C32.95 18.5 33 18.6 33 18.6C32.95 18.7 32.9 18.85 32.9 18.95C32.85 18.85 32.85 18.75 32.8 18.7C32.75 18.65 32.7 18.65 32.65 18.6C32.7 18.65 32.65 18.7 32.7 18.7C32.75 18.85 32.8 18.9 32.85 18.95C33 19.05 33 19.1 32.95 19.35C32.95 19.3 32.95 19.15 32.9 19.1C32.9 19.1 32.9 19.1 32.85 19.1V19.15C32.85 19.35 32.85 19.4 32.85 19.5C32.85 19.5 32.95 19.55 32.95 19.6C32.95 19.65 32.85 19.8 32.9 19.85C33 19.95 32.95 20 32.9 20.2C32.85 20.3 32.9 20.4 32.9 20.4C32.9 20.5 32.9 20.55 32.85 20.65C32.75 20.7 32.85 20.85 32.8 21C32.8 21.15 32.8 21.2 32.75 21.3C32.75 21.4 32.8 21.55 32.8 21.65C32.8 21.7 32.8 21.75 32.8 21.75C32.75 21.85 32.65 21.9 32.75 22.05C32.55 22.2 32.85 22.5 32.5 22.6C32.45 22.6 32.5 22.75 32.5 22.9C32.5 23 32.5 23.1 32.5 23.2C32.5 23.35 32.45 23.5 32.45 23.55C32.45 23.85 32.45 24 32.3 24.1C32.25 24.3 32.25 24.35 32.25 24.45C32.3 24.5 32.2 24.6 32.2 24.8C32.05 24.95 32.05 25.2 31.95 25.4C31.9 25.5 31.85 25.6 31.8 25.75C31.75 25.8 31.75 25.95 31.7 26C31.7 26.2 31.7 26.3 31.6 26.45C31.45 26.75 31.3 27.15 31.2 27.45C31.05 27.6 31.05 27.7 31 27.9C30.9 28.05 30.9 28.15 30.8 28.3C30.6 28.4 30.65 28.55 30.6 28.75C30.55 28.85 30.5 28.95 30.45 29.05C30.4 29.25 30.35 29.35 30.25 29.45C30.25 29.65 30.25 29.75 30.1 29.85C30 30.05 29.9 30.25 29.8 30.45C29.75 30.45 29.75 30.45 29.7 30.55C29.6 30.75 29.6 30.95 29.4 31.15C29.4 31.2 29.4 31.2 29.4 31.25C29.2 31.6 29.1 31.85 28.9 32.1C28.9 32.25 28.8 32.3 28.8 32.35C28.65 32.5 28.6 32.65 28.55 32.75C28.5 32.85 28.4 32.9 28.4 32.95C28.3 33.1 28.3 33.2 28.25 33.3C28.15 33.35 28.1 33.55 28.05 33.65C28 33.7 28.05 33.7 28.05 33.8C28.1 33.8 28.05 33.8 28 33.8C27.95 33.75 27.85 33.75 27.85 33.8C27.9 33.9 27.7 34.05 27.65 34.1C27.6 34.15 27.6 34.3 27.7 34.4V34.5C27.7 34.5 27.65 34.5 27.6 34.4C27.6 34.35 27.55 34.35 27.5 34.3C27.45 34.35 27.45 34.4 27.45 34.5C27.4 34.65 27.4 34.8 27.4 35C27.4 35.05 27.4 35.15 27.4 35.2C27.4 35.35 27.4 35.55 27.4 35.7C27.4 35.7 27.4 35.85 27.55 35.85C27.55 35.85 27.6 35.9 27.6 36C27.6 36.1 27.6 36.15 27.6 36.25C27.6 36.35 27.7 36.55 27.65 36.55C27.6 36.7 27.85 36.95 27.6 37C27.6 37.05 27.6 37.1 27.6 37.15C27.65 37.5 27.7 37.8 27.8 38.15C27.8 38.2 27.65 38.2 27.6 38.2C27.6 38.2 27.6 38.2 27.55 38.2C27.6 38.2 27.6 38.25 27.6 38.25C27.8 38.3 27.7 38.45 27.8 38.5C27.8 38.55 27.8 38.6 27.9 38.65C28 38.8 27.9 38.8 27.9 38.95H27.85C27.9 39.2 27.95 39.45 27.95 39.75C28 40.05 28.1 40.35 28.05 40.6C28.05 41 28.35 41.4 28.4 41.8C28.45 41.95 28.55 42.1 28.6 42.2C28.65 42.2 28.7 42.2 28.8 42.2C28.8 42.2 28.85 42.2 28.8 42.2C28.7 42.05 28.8 42 28.9 41.95C29.05 42.05 28.7 42.1 29 42.2H29.05C29.05 42.15 29.05 42.1 29.05 42.1C29.1 42.15 29.15 42.2 29.2 42.2C29.2 42.35 29.25 42.5 29.3 42.6C29.3 42.6 29.25 42.6 29.25 42.65C29.3 42.65 29.35 42.7 29.4 42.75C29.45 42.85 29.45 42.9 29.45 42.95C29.5 43 29.5 43.1 29.6 43.3C29.8 43.4 29.85 43.55 29.95 43.7C30 43.8 30.1 43.95 30.25 44.05C30.3 44.1 30.3 44.1 30.4 44.1C30.6 44.1 30.75 43.95 30.9 43.9C31.05 43.9 31.25 43.85 31.1 43.65C31.05 43.65 31.1 43.6 31.1 43.6C31.3 43.65 31.25 43.4 31.45 43.45V43.4C31.75 43.4 31.6 43.05 31.8 43.05C32 43.05 32 42.95 32.05 42.85C32.15 42.75 32.25 42.7 32.3 42.65C32.35 42.6 32.4 42.6 32.5 42.65C32.55 42.7 32.7 42.75 32.75 42.65C32.75 42.6 32.8 42.5 32.85 42.45C32.95 42.35 33.05 42.3 33.2 42.2C33.25 42.15 33.25 42.15 33.35 42.1C33.3 42.05 33.25 42 33.25 42C33.3 41.95 33.4 41.85 33.5 41.8C33.55 41.8 33.55 41.75 33.65 41.7C33.7 41.7 33.8 41.8 33.85 41.8C33.85 41.7 33.85 41.55 33.9 41.45C34.05 41.55 34.05 41.6 34.05 41.45C34.05 41.3 34.15 41.2 34.2 41.05C34.25 41.05 34.25 41.05 34.3 41.05C34.45 41.05 34.65 41 34.55 40.9C34.5 40.75 34.65 40.85 34.75 40.9C34.85 40.9 34.85 40.95 34.85 40.95C34.85 41 34.85 41 34.85 41C34.85 41 34.85 41 34.85 40.95C34.95 40.9 35.15 40.75 35.3 40.7C35.3 40.65 35.2 40.6 35.15 40.55C35.1 40.55 34.95 40.55 34.95 40.6C34.9 40.6 34.85 40.6 34.95 40.65C34.95 40.7 34.9 40.85 34.85 40.85C34.85 40.85 34.85 40.85 34.75 40.75C34.75 40.75 34.7 40.75 34.7 40.7C34.7 40.6 34.7 40.55 34.85 40.5C34.85 40.5 34.9 40.5 34.9 40.45C34.95 40.4 35 40.35 35.2 40.5C35.3 40.5 35.3 40.5 35.3 40.5C35.35 40.4 35.35 40.35 35.4 40.2C35.5 40.1 35.65 39.95 35.7 39.75C35.7 39.7 35.7 39.6 35.75 39.6C35.8 39.55 35.8 39.5 35.85 39.45C35.9 39.3 35.9 39.25 35.95 39.15C36 39.15 36 39.1 36.1 39.1C36.2 39.1 36.2 39.05 36.2 38.95C36.2 38.7 36.35 38.55 36.45 38.3C36.45 38.3 36.45 38.25 36.5 38.25C36.5 38.2 36.6 38.2 36.6 38.15C36.65 38.2 36.7 38.3 36.75 38.35C36.8 38.6 36.85 38.85 36.9 39.15C36.9 39.2 36.85 39.25 36.8 39.3C36.75 39.3 36.65 39.3 36.7 39.45C36.75 39.6 36.75 39.7 36.6 39.75C36.45 39.75 36.4 39.95 36.45 40.1C36.65 40.35 36.3 40.2 36.3 40.4C36.3 40.45 36.25 40.5 36.2 40.55C36.2 40.7 36.15 40.95 35.95 41.05C35.9 41.1 35.9 41.15 35.85 41.2C35.85 41.25 35.8 41.3 35.75 41.3C35.75 41.4 35.75 41.45 35.7 41.55C35.65 41.6 35.65 41.7 35.6 41.75C35.4 41.95 35.3 42.15 35.1 42.35C34.95 42.5 34.85 42.6 34.75 42.7C34.7 42.85 34.65 42.95 34.55 43C34.45 43.05 34.4 43.2 34.25 43.35C34.05 43.45 33.9 43.6 33.75 43.8C33.7 43.85 33.65 43.95 33.55 44.05C33.45 44.15 33.3 44.25 33.25 44.35C33.1 44.45 33 44.5 32.95 44.55C32.85 44.65 32.8 44.75 32.75 44.8C32.7 44.85 32.7 44.85 32.7 44.9C32.7 44.95 32.65 44.95 32.55 45C32.5 45 32.45 45.05 32.45 45.05C32.4 45.05 32.4 45.05 32.35 45.05C32.05 44.9 32 45.05 31.9 45.15H31.85C31.55 45.05 31.45 45.15 31.25 45.15C31.2 45.15 31.2 45.3 31.05 45.25C30.95 45.25 30.8 45.15 30.75 45.15C30.55 45 30.4 44.95 30.15 44.9C30.15 44.9 30.1 44.9 30.05 44.9C29.9 44.75 29.6 44.6 29.45 44.45C29.2 44.3 29 44.1 28.8 43.85C28.6 43.6 28.45 43.4 28.3 43.1C28.25 43.05 28.15 43 28.05 42.9C28.05 42.75 28.05 42.7 28 42.6C27.85 42.45 27.85 42.2 27.65 42C27.55 41.75 27.55 41.55 27.45 41.4C27.4 41.05 27.3 40.85 27.2 40.6C27.2 40.35 27.1 40.05 27.05 39.75C27.05 39.6 27.05 39.3 27 39.15C27 39 26.95 38.85 26.9 38.7C26.9 38.6 26.9 38.55 26.9 38.5C26.9 38.25 26.9 38.05 26.85 37.8C26.85 37.7 26.75 37.5 26.8 37.35C26.8 37.2 26.7 37.05 26.7 36.95V36.85C26.85 36.7 26.7 36.45 26.75 36.15C26.8 36.1 26.7 35.85 26.65 35.7C26.65 35.7 26.65 35.65 26.65 35.6C26.7 35.65 26.75 35.65 26.8 35.7C26.75 35.65 26.8 35.65 26.75 35.6C26.55 35.35 26.7 35.25 26.6 35.1C26.6 35.05 26.6 35.05 26.6 35C26.55 35 26.5 35 26.45 35C26.3 35 26.15 35.05 26 35.05C25.95 35.05 25.95 34.9 25.85 34.85C25.75 34.8 25.65 34.75 25.55 34.7C25.5 34.6 25.4 34.6 25.5 34.55C25.5 34.4 25.4 34.35 25.5 34.35C25.55 34.3 25.65 34.3 25.75 34.25C25.85 34.2 25.95 34.2 26 34.15C26.15 34.05 26.3 33.85 26.4 33.7C26.5 33.7 26.5 33.6 26.55 33.55C26.65 33.45 26.7 33.4 26.75 33.3C26.9 33.25 26.8 32.95 26.8 32.8C26.85 32.7 26.85 32.65 26.85 32.55C26.85 32.5 26.85 32.45 26.85 32.35C26.85 32.2 26.95 32.1 26.9 31.95C26.85 31.8 26.8 31.65 26.9 31.55C26.85 31.45 26.8 31.45 26.75 31.45C26.75 31.35 26.75 31.3 26.7 31.2C26.75 31.2 26.75 31.2 26.75 31.2C26.8 31.25 26.85 31.35 26.85 31.4C26.9 31.2 27 31.1 26.8 30.8C26.75 30.8 26.8 30.75 26.8 30.75ZM27.6 25.9C27.6 25.9 27.6 25.9 27.6 25.95V25.9C27.6 25.85 27.6 25.85 27.65 25.85C27.6 25.85 27.6 25.85 27.6 25.85C27.6 25.85 27.6 25.85 27.6 25.9ZM27.6 26.2V26.25C27.6 26.25 27.6 26.25 27.6 26.3C27.6 26.25 27.6 26.2 27.6 26.2C27.6 26.1 27.6 26.05 27.6 26C27.6 26.05 27.6 26.1 27.6 26.2ZM28.35 18.7C28.35 18.65 28.4 18.6 28.4 18.6C28.35 18.6 28.35 18.6 28.35 18.6C28.35 18.6 28.35 18.65 28.35 18.7C28.35 18.7 28.3 18.7 28.3 18.75C28.3 18.75 28.3 18.75 28.35 18.75V18.7ZM27.5 27.45C27.5 27.55 27.5 27.6 27.5 27.6C27.35 27.6 27.45 27.7 27.5 27.8C27.5 27.8 27.55 27.8 27.55 27.85C27.55 27.8 27.55 27.7 27.5 27.6C27.6 27.65 27.6 27.65 27.6 27.6C27.55 27.55 27.55 27.5 27.5 27.45C27.55 27.45 27.55 27.4 27.55 27.4H27.5V27.45ZM28.6 19.9C28.65 19.95 28.8 19.95 28.8 19.95C28.8 19.95 28.8 19.9 28.7 19.85C28.7 19.9 28.65 19.9 28.6 19.9C28.6 19.95 28.6 19.95 28.6 19.95C28.6 19.95 28.6 19.95 28.65 19.95C28.65 19.9 28.6 19.9 28.6 19.9ZM28.9 19.05C28.85 19.05 28.8 19 28.8 18.95C28.8 18.95 28.7 18.95 28.65 18.9C28.65 18.95 28.65 19 28.7 19C28.8 19.05 28.85 19.05 28.9 19.05C28.9 19.1 28.9 19.1 28.95 19.1C29.05 19.4 28.85 19.5 28.9 19.55C28.9 19.55 28.9 19.6 28.85 19.55C28.7 19.5 28.8 19.6 28.8 19.65C28.8 19.8 28.9 19.9 29 19.95C29 19.95 29.05 19.95 29.1 19.95C29.05 19.95 29 19.9 29 19.9C28.95 19.85 28.9 19.8 28.9 19.65C28.9 19.8 29 19.8 29 19.8C29.05 19.8 29.15 19.65 29.15 19.65C29.15 19.5 29.15 19.45 29.15 19.35C29.15 19.1 29.15 19.1 28.9 19.05ZM28.15 23.55C28.1 23.55 28.05 23.6 28.15 23.7C28.25 23.8 28.25 23.9 28.15 23.9C28 23.95 28.1 24 28.15 24.05C28.15 24.1 28.1 24.3 28.1 24.3C28 24.3 27.9 24.35 28 24.45C28 24.45 28 24.45 28 24.5C28 24.8 27.95 24.9 28 25.05C28 25.2 27.85 25.25 28 25.35C27.95 25.4 27.9 25.7 28 25.8C28 25.8 28 25.8 28.05 25.8C28.05 25.75 28 25.6 28 25.6C28 25.5 28 25.4 28 25.35C28 25.35 28.05 25.2 28.1 25.05C28.15 25.15 28.15 25.15 28.15 25.2C28.15 25.35 28.15 25.45 28.15 25.7C28.15 25.75 28.15 25.8 28.15 25.8C28.15 25.85 28.15 25.95 28.25 25.95C28.1 25.95 28.05 25.9 28 25.9C28 25.85 27.95 25.85 27.9 25.85C27.9 25.9 27.9 25.95 27.95 25.95C27.95 26 28 26.05 28 26.1V26.2C28 26.2 28 26.1 27.95 26.1C27.9 26.05 27.85 26 27.8 26C27.85 26.05 27.85 26.1 27.85 26.2C27.85 26.25 27.85 26.35 27.9 26.5V26.55C27.9 26.55 27.9 26.55 27.95 26.55C27.9 26.55 27.9 26.5 27.9 26.5C27.95 26.5 28 26.45 28.05 26.55C28.05 26.75 28.05 26.95 28 27.15C28 27.2 28 27.2 28 27.2C27.95 27.2 27.9 27.15 27.9 27.15C27.85 27.1 27.85 27.1 27.85 27.05C28 27.05 27.9 26.95 27.95 26.9C28 26.8 27.95 26.75 27.95 26.7C27.95 26.7 27.9 26.7 27.85 26.7C27.85 26.6 27.8 26.7 27.8 26.7C27.8 26.8 27.8 26.95 27.85 27.05C27.8 27.15 27.65 27.2 27.65 27.2C27.8 27.6 27.65 28 27.6 28.35C27.6 28.35 27.65 28.4 27.7 28.45C27.7 28.4 27.8 28.4 27.8 28.4C27.8 28.35 27.85 28.25 27.85 28.15C27.95 28.45 27.9 28.6 27.8 28.8H27.85C27.8 28.7 27.7 28.55 27.65 28.5C27.6 28.55 27.8 28.85 27.5 28.8C27.7 28.95 27.6 28.95 27.6 29.2C27.6 29.3 27.55 29.4 27.55 29.6C27.55 29.8 27.55 30.1 27.55 30.3C27.55 30.3 27.5 30.3 27.5 30.35C27.5 30.35 27.45 30.45 27.5 30.45C27.55 30.6 27.55 30.65 27.5 30.75C27.45 30.85 27.5 31.1 27.5 31.2C27.5 31.45 27.5 31.75 27.5 32.05C27.5 32.1 27.5 32.1 27.5 32.2C27.5 32.2 27.5 32.2 27.55 32.25C27.55 32.2 27.6 32.2 27.6 32.2C27.6 31.95 27.6 31.75 27.6 31.6C27.6 31.55 27.6 31.55 27.6 31.45C27.65 31.55 27.7 31.6 27.7 31.6C27.7 31.65 27.7 31.65 27.7 31.75C27.7 31.8 27.7 31.9 27.8 31.95C27.8 31.95 27.8 31.95 27.85 32.05C27.9 31.8 28 31.65 28 31.35C28.05 31.2 28.05 30.9 28.05 30.75C28.05 30.65 28 30.6 28 30.55C28 30.45 28 30.45 28 30.45C28 30.45 28.05 30.45 28.05 30.35C28.05 30.3 28.05 30.25 28.05 30.2C28.05 30.15 28.1 30.15 28.15 30.15C28.15 30.15 28.15 30.2 28.15 30.25C28.15 30.35 28.15 30.6 28.15 30.75C28.15 30.85 28.1 31.05 28.1 31.2C28.1 31.2 28.1 31.25 28.1 31.3C28.15 31.3 28.25 31.3 28.25 31.35C28.3 31.25 28.3 31.2 28.3 31.2C28.35 31.05 28.4 30.9 28.45 30.75C28.5 30.65 28.65 30.45 28.7 30.3C28.8 30.2 28.85 30.05 28.95 29.85C29 29.75 29.05 29.65 29.15 29.6C29.15 29.45 29.2 29.4 29.25 29.3C29.4 28.95 29.6 28.6 29.75 28.3C29.9 28.05 30 27.7 30.1 27.45C30.25 27.15 30.4 26.9 30.45 26.6C30.55 26.35 30.75 26.1 30.65 25.8C30.65 25.8 30.75 25.8 30.75 25.75C30.8 25.7 30.8 25.6 30.85 25.5C30.95 25.35 31 25 31.05 24.8C31.2 24.55 31.25 24.45 31.25 24.3C31.35 24 31.4 23.6 31.45 23.4C31.5 23.1 31.6 22.95 31.7 22.65C31.7 22.3 31.75 21.9 31.8 21.55C31.85 21.3 31.85 21.1 31.85 20.85C31.8 20.55 31.9 20.4 31.95 20.2C32.05 19.95 31.95 19.6 32 19.45C32.05 19.3 32 19.05 32.05 18.9C32.05 18.6 32.05 18.3 32.05 18.05C32.05 18 32 17.85 32.05 17.8C32.2 17.65 32.05 17.4 32.05 17.2C32.05 16.9 32.05 16.65 32.05 16.35C32.05 16 32 15.75 32 15.45C32 15.45 32 15.25 32 15.15C31.95 15 31.9 14.75 31.95 14.6C31.95 14.55 31.85 14.25 31.8 14.1C31.8 14.05 31.85 13.9 31.85 13.75V13.7C31.8 13.55 31.75 13.4 31.75 13.2C31.7 13 31.7 12.75 31.6 12.55C31.55 12.45 31.55 12.3 31.5 12.15C31.45 12 31.4 11.85 31.35 11.7C31.3 11.55 31.25 11.4 31.25 11.35C31.2 11.25 31.2 11.25 31.1 11.25C31.05 11.4 30.95 11.55 30.85 11.7C30.8 11.95 30.8 12.15 30.65 12.35C30.55 12.55 30.75 12.75 30.45 12.8C30.55 13 30.45 13.05 30.4 13.1C30.4 13.25 30.4 13.55 30.35 13.65C30.3 13.9 30.25 14.1 30.15 14.25C30.1 14.5 30.1 14.6 30.05 14.7C30 15.15 29.95 15.6 29.85 16.05C29.85 16.3 29.8 16.45 29.75 16.7C29.75 16.75 29.7 16.85 29.7 16.95C29.7 17.1 29.7 17.3 29.7 17.45C29.7 17.5 29.6 17.5 29.6 17.5C29.6 17.65 29.5 17.7 29.5 17.9C29.55 18.15 29.45 18.3 29.4 18.5C29.4 18.6 29.35 18.75 29.3 18.95C29.25 19.15 29.25 19.5 29.25 19.9C29.2 19.95 29.2 20.05 29.2 20.2C29.2 20.35 29.2 20.45 29.2 20.55C29.15 20.75 29.1 20.85 29.05 20.9C29.05 21.15 29.05 21.3 28.9 21.4C28.9 21.3 28.85 21.3 28.85 21.3C28.9 21 28.9 20.85 28.95 20.55C28.95 20.5 28.95 20.45 28.95 20.4C29.1 20.4 29.05 20.35 28.95 20.35H28.9C28.85 20.35 28.8 20.35 28.8 20.35C28.8 20.3 28.8 20.2 28.8 20.05C28.55 20.05 28.5 20.1 28.55 20.35C28.55 20.4 28.65 20.5 28.5 20.55C28.4 20.55 28.35 20.7 28.45 20.85C28.5 20.85 28.6 20.85 28.65 20.85L28.7 20.9C28.7 20.95 28.65 20.95 28.65 21C28.6 21 28.55 21.1 28.55 21.1C28.55 21.1 28.55 21.1 28.6 21.15C28.6 21.15 28.65 21.15 28.7 21.15C28.7 21.15 28.8 21.2 28.7 21.2C28.7 21.3 28.65 21.2 28.6 21.2C28.5 21.15 28.4 21.15 28.5 21.3C28.6 21.4 28.5 21.45 28.4 21.55H28.35C28.45 21.65 28.35 21.65 28.35 21.75C28.3 21.8 28.3 21.85 28.35 21.9C28.35 21.95 28.35 22.05 28.35 22.05C28.4 22.15 28.4 22.2 28.5 22.3C28.45 22.3 28.45 22.3 28.45 22.3C28.4 22.25 28.35 22.2 28.25 22.1C28.3 22.3 28.1 22.35 28.4 22.55L28.35 22.6C28.25 22.6 28.25 22.65 28.35 22.75C28.4 22.85 28.45 22.95 28.5 23.05C28.45 23.05 28.45 23.05 28.45 23.05C28.4 23 28.4 22.95 28.4 22.95C28.3 23 28.15 23 28.1 23.05C28 23.05 28.15 23.35 28.3 23.4C28.35 23.4 28.4 23.45 28.4 23.5C28.4 23.5 28.35 23.45 28.3 23.5C28.3 23.5 28.3 23.5 28.3 23.55C28.3 23.55 28.3 23.55 28.25 23.55C28.25 23.5 28.15 23.5 28.15 23.45C28.15 23.45 28.15 23.45 28.1 23.4C28.1 23.5 28.15 23.55 28.15 23.55ZM34.3 41.25C34.3 41.3 34.3 41.4 34.3 41.4C34.45 41.55 34.4 41.6 34.3 41.65C34.25 41.7 34.2 41.75 34.15 41.8C34.05 41.85 34.15 41.85 34.15 41.9C34.2 41.9 34.2 41.9 34.25 41.9C34.25 41.85 34.25 41.85 34.3 41.8C34.45 41.65 34.7 41.45 34.85 41.25C34.85 41.2 34.85 41.15 34.85 41.1C34.85 41.1 34.85 41.1 34.75 41.05C34.7 41.15 34.55 41.2 34.55 41.25C34.55 41.4 34.45 41.4 34.3 41.25ZM29.2 18.9C29.15 18.85 29.1 18.75 29.1 18.7C29.05 18.7 29 18.65 28.95 18.6C28.95 18.6 28.9 18.65 28.85 18.65C28.85 18.7 28.8 18.7 28.8 18.75C28.8 18.75 28.8 18.85 28.8 18.9C28.8 18.95 28.85 18.95 28.9 19C29 19 29 19 29.1 19C29.25 19.05 29.2 18.95 29.2 18.9ZM28.8 18.1C28.9 18.2 29.05 18.45 29.2 18.6C29.25 18.5 29.25 18.4 29.25 18.3L29.2 18.15C29.05 18.15 28.9 18.15 28.8 18.1ZM29.05 17.15C29.1 17.25 29.15 17.4 29.2 17.5H29.3C29.3 17.45 29.3 17.35 29.3 17.25C29.3 17.25 29.2 17.2 29.15 17.2C29.15 17.15 29.1 17.15 29.05 17.15ZM33.45 42.65L33.5 42.7C33.65 42.6 33.75 42.5 33.9 42.35C33.85 42.35 33.85 42.3 33.8 42.3C33.75 42.3 33.65 42.3 33.65 42.35C33.75 42.5 33.6 42.55 33.5 42.6L33.45 42.65ZM27.55 37.75C27.55 37.65 27.6 37.6 27.6 37.5C27.6 37.45 27.55 37.4 27.55 37.4C27.5 37.4 27.4 37.4 27.4 37.4C27.45 37.5 27.5 37.6 27.55 37.75ZM29.25 43.45C29.3 43.45 29.3 43.45 29.35 43.45C29.3 43.4 29.25 43.4 29.2 43.35C29.15 43.3 29.1 43.3 29.05 43.3C29.1 43.4 29.2 43.4 29.25 43.45ZM29 42.9H29.05C29 42.85 29 42.7 28.95 42.6C28.95 42.6 28.9 42.6 28.85 42.6C28.8 42.6 28.85 42.6 28.85 42.6C28.9 42.7 28.95 42.85 29 42.9ZM28.95 17.7C28.95 17.7 28.95 17.8 28.9 17.8C29 17.85 29.05 17.85 29.1 17.9L29.15 17.85C29.1 17.8 29.05 17.8 28.95 17.7ZM29.7 14.2C29.7 14.35 29.6 14.45 29.6 14.55C29.7 14.55 29.7 14.55 29.75 14.55C29.7 14.5 29.9 14.45 29.7 14.2ZM27.2 30.9C27.2 30.9 27.2 30.9 27.3 30.9C27.3 30.85 27.3 30.8 27.35 30.75C27.3 30.75 27.3 30.75 27.2 30.7C27.2 30.75 27.2 30.8 27.2 30.9ZM27.45 36.45C27.45 36.45 27.45 36.45 27.5 36.5C27.5 36.35 27.5 36.25 27.5 36.15C27.45 36.15 27.45 36.15 27.4 36.15C27.45 36.25 27.45 36.35 27.45 36.45ZM29.25 17.95C29.3 17.95 29.3 17.95 29.35 17.95C29.3 17.9 29.3 17.85 29.25 17.8L29.2 17.7C29.2 17.8 29.25 17.9 29.25 17.95ZM27.9 22.2C27.85 22.15 27.85 22.05 27.8 22C27.8 22.05 27.8 22.1 27.85 22.2C27.85 22.2 27.85 22.2 27.9 22.2ZM29.6 16.5C29.55 16.5 29.5 16.45 29.5 16.45C29.5 16.5 29.45 16.5 29.45 16.55H29.5C29.55 16.55 29.55 16.55 29.6 16.5ZM29.35 43.55C29.3 43.55 29.3 43.6 29.3 43.6C29.35 43.6 29.4 43.65 29.4 43.65V43.6L29.35 43.55ZM27.55 38L27.5 37.95C27.5 38 27.5 38.05 27.55 38.05C27.55 38.05 27.6 38.1 27.6 38.05C27.6 38.05 27.6 38 27.55 38ZM29.7 14.6H29.6C29.6 14.65 29.6 14.65 29.6 14.65C29.6 14.65 29.7 14.65 29.7 14.7C29.7 14.65 29.7 14.65 29.7 14.6ZM29.6 14.75C29.6 14.7 29.6 14.7 29.6 14.7H29.55C29.55 14.75 29.6 14.75 29.6 14.75ZM27.65 25.8C27.65 25.75 27.65 25.75 27.65 25.75C27.65 25.7 27.6 25.7 27.6 25.7C27.6 25.7 27.6 25.7 27.6 25.75C27.6 25.75 27.65 25.75 27.65 25.8ZM34.45 41.25C34.45 41.25 34.4 41.25 34.4 41.2V41.25C34.4 41.25 34.45 41.25 34.45 41.3V41.25ZM29.2 43.05H29.15C29.15 43.05 29.15 43.05 29.15 43.1C29.15 43.05 29.2 43.05 29.2 43.05ZM27.2 32.1C27.2 32.2 27.2 32.2 27.2 32.2C27.3 32.2 27.3 32.25 27.3 32.25C27.35 32.25 27.35 32.2 27.35 32.2C27.3 32.2 27.3 32.2 27.2 32.1ZM27.65 39H27.6L27.65 39.05C27.65 39.05 27.65 39.05 27.65 39ZM28.8 15.95V16V15.95ZM27.5 37.1C27.5 37.1 27.5 37.1 27.5 37.15C27.5 37.15 27.5 37.15 27.55 37.15C27.55 37.15 27.55 37.1 27.5 37.1ZM27.35 28.75L27.3 28.7V28.75C27.3 28.75 27.3 28.75 27.35 28.75ZM27.55 28.05C27.5 28 27.5 28 27.5 28H27.45C27.45 28.05 27.5 28.05 27.5 28.05H27.55ZM27.2 30.1V30.15H27.3C27.3 30.1 27.2 30.1 27.2 30.1ZM29.5 16.2C29.5 16.1 29.5 16.1 29.45 16.1V16.2C29.5 16.2 29.5 16.2 29.5 16.2ZM29.45 16.7H29.4C29.4 16.7 29.4 16.7 29.45 16.75C29.45 16.7 29.45 16.7 29.45 16.7ZM27.3 30.3H27.2H27.3ZM28.9 20.05C28.9 20.05 28.9 20.05 28.85 20.05L28.9 20.1V20.05ZM27.45 28.45C27.45 28.45 27.45 28.45 27.45 28.4C27.4 28.4 27.4 28.4 27.4 28.45C27.4 28.45 27.4 28.45 27.45 28.45ZM28.25 19C28.25 19 28.25 19.05 28.3 19.05C28.3 19.05 28.3 19.05 28.3 19C28.3 19 28.3 19 28.25 19ZM34.05 42.15V42.1C34.05 42.1 34.05 42.1 34 42.1L34.05 42.15ZM29.1 16H29.05C29.05 16 29.1 16 29.1 16.05C29.1 16 29.1 16 29.1 16ZM28.35 19.1H28.3C28.35 19.1 28.35 19.1 28.35 19.1ZM28.15 37.7C28.15 37.75 28.15 37.8 28.15 37.95C28.15 38 28.1 38.05 28.3 38.1C28.3 38.1 28.3 38.15 28.25 38.15H28.15C28.35 38.35 28.25 38.35 28.1 38.5C28.05 38.35 28 38.3 28 38.25C28 37.95 28 37.6 27.95 37.2C27.95 37.1 27.95 37 27.95 36.95C27.95 36.85 28 36.85 28 36.8C28 37 28 37.2 28.15 37.35C28.25 37.5 28 37.55 28.15 37.7ZM28.1 38.5C28.15 38.55 28.15 38.55 28.25 38.55C28.25 38.65 28.3 38.75 28.3 38.8C28.35 38.95 28.4 39.05 28.3 39.1L28.35 39.15C28.45 39.2 28.5 39.3 28.45 39.4C28.45 39.4 28.45 39.4 28.4 39.4C28.3 39.3 28.1 39.2 28.1 39.2C28.1 38.95 28.1 38.75 28.05 38.55C28.05 38.55 28.1 38.55 28.1 38.5ZM28.45 40.15C28.5 40.2 28.5 40.35 28.35 40.35C28.35 40.35 28.35 40.25 28.4 40.25C28.4 40.25 28.5 40.25 28.35 40.2C28.3 40.2 28.3 40.1 28.3 40.05C28.3 39.95 28.35 39.9 28.35 39.75C28.35 39.75 28.35 39.7 28.3 39.65C28.3 39.6 28.25 39.5 28.25 39.45L28.3 39.4C28.35 39.4 28.4 39.5 28.4 39.5C28.35 39.6 28.4 39.7 28.5 39.75L28.55 39.8C28.35 39.8 28.5 40.05 28.45 40.15L28.4 40.1C28.4 40.1 28.4 40.1 28.4 40.15H28.45ZM28 34.55C28 34.75 28.05 34.9 28.05 35.15H28C28 35.15 27.95 35.1 27.95 35.05C27.95 34.85 27.9 34.75 27.95 34.65C27.95 34.6 28 34.55 28 34.55ZM28.65 40.7C28.6 40.6 28.5 40.55 28.4 40.6C28.45 40.5 28.5 40.4 28.6 40.25C28.65 40.45 28.65 40.6 28.7 40.7C28.7 40.7 28.7 40.7 28.65 40.7ZM28.8 41.4C28.7 41.4 28.7 41.4 28.65 41.3C28.65 41.4 28.65 41.4 28.65 41.4C28.65 41.45 28.65 41.45 28.65 41.5C28.65 41.5 28.65 41.5 28.6 41.45C28.6 41.4 28.55 41.25 28.5 41.15C28.6 41.2 28.6 41.2 28.65 41.25C28.7 41.25 28.8 41.3 28.85 41.3C28.8 41.4 28.8 41.4 28.8 41.4ZM28 36.8C28 36.75 28 36.6 28 36.55H28.05C28.1 36.55 28.1 36.6 28.1 36.6C28.1 36.6 28.15 36.7 28.1 36.75L28 36.8ZM28 36.5V36.45C28 36.3 28 36.15 28 36.1L28.05 36.15C28.05 36.15 28.05 36.35 28.05 36.5C28.05 36.5 28.05 36.5 28 36.5ZM28 34.4C28 34.4 28 34.4 28 34.5C28 34.4 28 34.35 28 34.3C27.95 34.35 28 34.35 28 34.4ZM28.8 41.55V41.6C28.85 41.65 28.9 41.65 28.95 41.65C28.95 41.7 28.9 41.7 28.85 41.7C28.8 41.65 28.8 41.6 28.8 41.6C28.8 41.55 28.8 41.55 28.8 41.55ZM27.55 35.7C27.55 35.6 27.55 35.55 27.5 35.4C27.55 35.5 27.6 35.5 27.6 35.5C27.6 35.55 27.6 35.6 27.55 35.7ZM28.7 41.85C28.7 41.8 28.7 41.75 28.65 41.75C28.7 41.75 28.7 41.75 28.8 41.75C28.8 41.8 28.8 41.85 28.8 41.85C28.8 41.85 28.8 41.85 28.7 41.85ZM26.95 27.8C26.95 27.85 26.95 27.9 26.95 27.95C26.95 27.95 26.95 27.95 26.9 27.95C26.9 27.9 26.9 27.85 26.9 27.8H26.95ZM27 27.15V27.2C26.95 27.2 26.95 27.2 26.95 27.2C26.95 27.2 26.95 27.15 26.95 27.1C26.95 27.1 27 27.1 27 27.15ZM27.55 35.25C27.55 35.2 27.55 35.15 27.5 35.15H27.55C27.55 35.15 27.6 35.2 27.6 35.25C27.6 35.25 27.6 35.25 27.55 35.25ZM27.55 35.7C27.6 35.7 27.6 35.7 27.6 35.8C27.6 35.7 27.55 35.7 27.5 35.7C27.55 35.7 27.55 35.7 27.55 35.7ZM28.4 41.1C28.4 41.05 28.35 41.05 28.35 41H28.4C28.4 41.05 28.4 41.05 28.4 41.1ZM26.85 31.1C26.8 31.1 26.8 31.1 26.8 31.15C26.75 31.1 26.75 31.1 26.75 31.1V31.05C26.75 31.05 26.8 31.05 26.85 31.1ZM26.65 32.65C26.7 32.7 26.7 32.75 26.75 32.8H26.7C26.7 32.75 26.65 32.7 26.65 32.65ZM34.45 40.95C34.4 41 34.4 41 34.4 41C34.4 41 34.4 41 34.4 40.95C34.4 40.95 34.4 40.95 34.4 40.9C34.4 40.9 34.4 40.9 34.45 40.95ZM27.05 27.4C27 27.4 27 27.45 27 27.45L26.95 27.4V27.35C26.95 27.35 27 27.4 27.05 27.4ZM27.4 25.6C27.4 25.7 27.4 25.7 27.35 25.7H27.3C27.3 25.6 27.3 25.6 27.3 25.6C27.35 25.6 27.35 25.6 27.4 25.6ZM28.15 37.7C28.25 37.75 28.25 37.75 28.3 37.75C28.3 37.75 28.3 37.75 28.35 37.75C28.3 37.75 28.25 37.75 28.15 37.7ZM26.9 28.35C26.85 28.3 26.85 28.3 26.85 28.3C26.85 28.25 26.85 28.25 26.85 28.25H26.9C26.9 28.3 26.9 28.3 26.9 28.35ZM28 35.25C28 35.25 28 35.25 27.95 35.25C28 35.25 28 35.25 28 35.25ZM26.8 30.45C26.8 30.45 26.8 30.45 26.85 30.45C26.85 30.45 26.85 30.45 26.8 30.45C26.8 30.45 26.8 30.45 26.8 30.35C26.8 30.45 26.8 30.45 26.8 30.45ZM26.8 30.75C26.8 30.75 26.75 30.7 26.75 30.65C26.8 30.65 26.8 30.7 26.8 30.7V30.75ZM27.6 34.6V34.65C27.6 34.6 27.6 34.6 27.6 34.6ZM27.95 35.3C28 35.3 28 35.3 28 35.3C28 35.35 28 35.35 28 35.35C27.95 35.35 27.95 35.35 27.95 35.3ZM35.7 39.75C35.65 39.75 35.65 39.75 35.6 39.8C35.5 39.75 35.5 39.75 35.5 39.75C35.6 39.75 35.65 39.75 35.7 39.75ZM35.3 40.15C35.3 40.2 35.3 40.2 35.3 40.2L35.2 40.15C35.3 40.15 35.3 40.15 35.3 40.15ZM28.45 40.95C28.45 40.9 28.45 40.9 28.45 40.9C28.5 40.9 28.5 40.9 28.5 40.95C28.5 40.95 28.5 40.95 28.45 40.95ZM35.4 40.05V40.1C35.35 40.1 35.35 40.05 35.35 40.05C35.35 40.05 35.35 40.05 35.4 40.05ZM28.05 35.7C28 35.7 28 35.7 28 35.7C28 35.7 28 35.7 28.05 35.7ZM26.65 33.3V33.25C26.65 33.3 26.6 33.3 26.6 33.3H26.65ZM28.05 35.9C28 35.9 28 35.9 28 35.9C28 35.85 28 35.85 28 35.85C28.05 35.85 28.05 35.9 28.05 35.9ZM35.15 40.6C35.15 40.6 35.15 40.6 35.1 40.6C35.1 40.6 35.15 40.6 35.15 40.65C35.15 40.6 35.15 40.6 35.15 40.6ZM28 33.9C27.95 33.9 28 33.9 28 33.9V33.9ZM28.8 41.55C28.8 41.5 28.8 41.45 28.8 41.4C28.8 41.45 28.8 41.5 28.8 41.55ZM27.95 38.6C27.95 38.65 27.95 38.65 27.95 38.65C27.9 38.65 27.9 38.65 27.9 38.65C27.9 38.6 27.9 38.6 27.9 38.6C27.9 38.6 27.9 38.6 27.95 38.6ZM28.65 23.6H28.7C28.65 23.55 28.65 23.4 28.65 23.25C28.65 23.1 28.65 22.9 28.7 22.65C28.7 22.55 28.7 22.4 28.8 22.3C28.8 22.05 28.8 21.8 28.8 21.6C28.8 21.55 28.85 21.45 28.85 21.45C28.9 21.45 28.9 21.45 28.9 21.45C28.95 21.55 29 21.55 28.95 21.6C28.95 21.7 28.9 21.85 28.9 21.95C28.9 22.1 28.9 22.3 28.85 22.4C28.85 22.65 28.8 22.9 28.8 23.1C28.95 23.4 28.7 23.5 28.7 23.55C28.7 23.6 28.7 23.6 28.65 23.6ZM28.5 25.95C28.45 25.95 28.45 25.95 28.45 25.9C28.4 25.9 28.4 25.85 28.4 25.8C28.4 25.75 28.4 25.6 28.45 25.5C28.45 25.35 28.5 25.15 28.5 24.9C28.5 24.75 28.55 24.5 28.55 24.4C28.5 24.25 28.55 24.05 28.55 24H28.6H28.65C28.65 24.05 28.65 24.05 28.65 24.1C28.65 24.45 28.65 24.8 28.6 24.95C28.6 25.15 28.55 25.25 28.55 25.35C28.55 25.5 28.5 25.75 28.5 25.9V25.95ZM28.4 26.8C28.3 26.5 28.4 26.25 28.4 26C28.4 26 28.45 26 28.45 26.05C28.45 26.3 28.45 26.6 28.4 26.8ZM27.8 29.8C27.7 29.65 27.65 29.4 27.65 29.3C27.65 29.25 27.7 29.25 27.8 29.25L27.85 29.3C27.85 29.4 27.9 29.65 27.9 29.7C27.9 29.75 27.85 29.75 27.85 29.8C27.8 29.8 27.8 29.8 27.8 29.8ZM28.1 24.95C28.1 24.9 28.1 24.85 28.1 24.8V24.75C28.1 24.6 28.1 24.55 28.1 24.55C28.1 24.55 28.25 24.55 28.25 24.6C28.3 24.75 28.35 24.8 28.35 24.8C28.3 24.85 28.25 24.9 28.15 24.95H28.1ZM28.4 26.95C28.4 27.1 28.4 27.2 28.4 27.4C28.4 27.45 28.35 27.45 28.35 27.45C28.3 27.45 28.3 27.4 28.3 27.4C28.3 27.2 28.35 27.1 28.35 26.9C28.4 26.95 28.4 26.95 28.4 26.95ZM27.85 28.05C27.85 27.95 27.85 27.8 27.85 27.6C27.9 27.6 27.9 27.6 27.95 27.6C27.95 27.8 27.95 28 27.9 28.1L27.85 28.05ZM28.25 28.6H28.3C28.15 28.45 28.15 28.25 28.25 28.05C28.25 28.3 28.4 28.5 28.25 28.6ZM27.8 30.55C27.6 30.45 27.6 30.25 27.7 30.15C27.8 30.15 27.8 30.15 27.8 30.15C27.8 30.3 27.8 30.35 27.8 30.55ZM28.35 27.55C28.35 27.7 28.35 27.9 28.35 28.05C28.25 27.95 28.25 27.8 28.35 27.55ZM28.25 29.2C28.25 29.25 28.25 29.25 28.25 29.25C28.25 29.35 28.25 29.4 28.25 29.6L28.15 29.65C28.15 29.65 28.1 29.6 28.1 29.45C28.1 29.4 28.05 29.3 28.1 29.25C28.1 29.2 28.15 29.2 28.15 29.2H28.25ZM28.1 29.9C28.1 29.85 28.1 29.75 28.1 29.65C28.3 29.75 28.3 29.85 28.1 29.9ZM28.25 28.9V28.95C28.15 28.85 28.05 28.7 28.3 28.6H28.25C28.25 28.75 28.25 28.85 28.25 28.9ZM27.8 28.8H27.85C27.65 28.85 27.65 28.95 27.85 29.15C27.85 28.95 27.85 28.85 27.8 28.8ZM28.15 23.55C28.15 23.55 28.25 23.55 28.3 23.55C28.35 23.6 28.4 23.6 28.4 23.6V23.7C28.4 23.7 28.35 23.7 28.3 23.7C28.25 23.6 28.15 23.55 28.15 23.55ZM28.55 21.7C28.55 21.65 28.5 21.6 28.5 21.6H28.55C28.6 21.65 28.6 21.65 28.6 21.7H28.55ZM28.7 23.9C28.65 23.95 28.65 23.95 28.65 23.95C28.6 23.95 28.6 23.95 28.55 23.95C28.55 23.9 28.55 23.9 28.6 23.9C28.6 23.85 28.65 23.9 28.7 23.9ZM28.25 28.95V28.9C28.25 28.95 28.25 28.95 28.25 28.95C28.25 28.95 28.25 28.95 28.25 29.05C28.15 29.05 28.15 28.95 28.15 28.95H28.25ZM27.65 30.9C27.65 30.9 27.65 30.85 27.65 30.8C27.7 30.85 27.7 30.85 27.7 30.85C27.7 30.9 27.7 30.9 27.7 30.95C27.7 30.95 27.65 30.95 27.65 30.9ZM28.65 23.6H28.7C28.7 23.7 28.7 23.8 28.8 23.85C28.8 23.8 28.7 23.7 28.65 23.6ZM28.65 21.4C28.65 21.35 28.6 21.3 28.6 21.3C28.65 21.3 28.65 21.35 28.7 21.4H28.65ZM27.65 31.2C27.65 31.15 27.65 31.15 27.6 31.1C27.65 31.1 27.65 31.1 27.65 31.1C27.7 31.15 27.7 31.2 27.7 31.2H27.65ZM28.3 24.05C28.3 24.05 28.3 24.05 28.3 24C28.35 24.05 28.35 24.05 28.35 24.05C28.35 24.05 28.35 24.05 28.35 24.1C28.3 24.05 28.3 24.05 28.3 24.05ZM28.3 24.45C28.25 24.45 28.25 24.45 28.15 24.45H28.25H28.3ZM28.8 20.35C28.8 20.35 28.8 20.35 28.7 20.35C28.7 20.35 28.8 20.35 28.8 20.4C28.8 20.35 28.8 20.35 28.8 20.35ZM37.0797 44.9C36.7797 44.9 36.5297 44.75 36.2797 44.65C35.8797 44.45 35.5297 44.2 35.2797 43.9C35.2297 43.85 35.1797 43.8 35.1297 43.8V43.7L35.0297 43.6V43.5C35.0297 43.45 35.0297 43.45 35.0297 43.4H34.9297L34.7797 43.05L34.8297 43C34.8297 43 34.7797 42.95 34.7797 42.9C34.7797 42.85 34.7297 42.75 34.7297 42.65C34.7297 42.6 34.7297 42.55 34.7297 42.5L34.6797 42.45L34.7297 42.3C34.7297 42.2 34.7297 42.2 34.7297 42.15L34.7797 41.9C34.7797 41.7 34.7797 41.5 34.8297 41.3C34.8297 41.2 34.8797 41.1 34.9297 41C35.0297 41 35.0297 40.95 35.0297 40.9C35.0297 40.75 35.1297 40.65 35.1297 40.6C35.1797 40.45 35.2297 40.2 35.2797 40.1C35.3297 40.05 35.3297 39.95 35.3797 39.9C35.4297 39.8 35.4797 39.75 35.4797 39.7C35.5297 39.65 35.5797 39.6 35.6297 39.5C35.6297 39.45 35.6797 39.4 35.6797 39.3C35.6797 39.25 35.8297 39.2 35.8797 39.2L35.9797 39.3V39.2V39.1C35.9797 39.05 35.9797 38.95 36.0797 38.95C36.0797 38.75 36.1797 38.7 36.2297 38.65C36.2797 38.6 36.2797 38.55 36.3297 38.55C36.3797 38.5 36.3797 38.45 36.3797 38.35C36.4797 38.25 36.5297 38.15 36.6797 38.1C36.7297 37.9 36.7797 37.8 36.8797 37.8C36.8797 37.75 36.9797 37.75 37.0297 37.75C37.0797 37.75 37.1297 37.65 37.1797 37.6L37.2297 37.5C37.2797 37.45 37.4297 37.35 37.4797 37.3C37.5297 37.3 37.5797 37.3 37.5797 37.25C37.7297 37 38.0297 36.95 38.2797 36.8C38.2297 36.7 38.2797 36.6 38.2797 36.6C38.3297 36.55 38.3797 36.45 38.4297 36.35L38.5297 36.15H38.6297H38.7297L38.8797 36.25H38.9297H38.9797C39.0297 36.3 39.0797 36.3 39.1297 36.3H39.1797C39.1797 36.25 39.2297 36.25 39.2797 36.25C39.3297 36.25 39.4797 36.3 39.5297 36.35L39.5797 36.45C39.6797 36.55 39.7797 36.6 39.8297 36.75C39.8297 36.75 39.9297 36.75 39.9297 36.8C39.9797 36.8 39.9797 36.85 39.9797 36.85C40.0797 36.95 40.1797 37.05 40.1297 37.2L40.2297 37.25L40.4297 37.65C40.4297 37.7 40.4297 37.75 40.4297 37.75C40.4797 37.8 40.4797 37.9 40.5297 37.9C40.6297 38.05 40.6297 38.15 40.6297 38.2C40.6297 38.25 40.6797 38.3 40.6797 38.3C40.6797 38.35 40.7297 38.45 40.7297 38.5C40.7297 38.55 40.7297 38.55 40.7797 38.55C40.8797 38.6 40.8797 38.65 40.9297 38.7C40.9797 38.75 41.0297 38.75 41.0797 38.8C41.1297 38.8 41.1297 38.85 41.1797 38.95C41.1797 38.95 41.2297 38.95 41.2297 39C41.5297 39.1 41.6797 39.25 41.9297 39.3C42.2297 39.5 42.4797 39.65 42.7797 39.7C42.8297 39.75 42.9297 39.75 43.0297 39.75C43.1797 39.75 43.3297 39.8 43.4797 39.9C43.5797 40 43.6297 40 43.8297 40.05C43.9297 40.05 44.0297 40.05 44.0797 40.1C44.1297 40.1 44.1797 40.1 44.1797 40.1H44.4797C44.4797 40.1 44.5297 40.1 44.5797 40.15L44.6297 40.2C44.6797 40.2 44.7797 40.2 44.8297 40.2C44.9297 40.15 45.0297 40.1 45.1297 40.1C45.2797 40.1 45.3797 40.15 45.4297 40.2H45.4797C45.5297 40.2 45.5297 40.2 45.5797 40.15L45.6297 40.1C45.6797 40.1 45.6797 40.1 45.7797 40.1H45.8297C45.8297 40.1 45.8797 40.1 45.9297 40.15H45.9797C45.9797 40.15 45.9797 40.15 46.0297 40.15C46.0297 40.1 46.0797 40.05 46.0797 40.05C46.2797 40 46.3297 39.95 46.4797 39.95C46.5297 39.95 46.5797 39.95 46.5797 39.95C46.7297 39.95 46.7797 39.95 46.8797 39.8C46.8797 39.75 47.0297 39.75 47.1797 39.7L47.2797 39.65H47.3297H47.3797C47.4297 39.7 47.4797 39.7 47.4797 39.7L47.6297 39.6C47.8297 39.45 48.0797 39.3 48.2797 39.15C48.2797 39.1 48.2797 39.05 48.3297 39C48.4297 38.95 48.5297 38.8 48.5297 38.7L48.7297 38.55C48.7797 38.5 48.8297 38.5 48.8297 38.45L48.9797 38.3L49.0297 38.5C49.0297 38.55 49.0797 38.6 49.0297 38.65V38.7V38.75H49.0797C49.1297 38.7 49.2297 38.7 49.2797 38.65V38.55H49.4297C49.6297 38.6 49.7297 38.7 49.7297 38.8C49.7297 38.85 49.7297 38.95 49.6297 39.05C49.5797 39.1 49.5297 39.15 49.5797 39.25C49.5797 39.45 49.4797 39.6 49.4297 39.7C49.3297 39.9 49.2297 40 49.0797 40.1L49.0297 40.2C48.9797 40.2 48.9797 40.2 48.9297 40.25C48.8797 40.25 48.8297 40.35 48.8297 40.35C48.7797 40.35 48.7297 40.4 48.7297 40.4C48.5797 40.6 48.5297 40.65 48.3797 40.75L48.2797 40.85C48.0797 41 47.8797 41.05 47.6797 41.15L47.6297 41.2C47.4797 41.25 47.3797 41.25 47.2797 41.3L47.0297 41.4C46.8797 41.45 46.7797 41.5 46.5297 41.5L46.4297 41.55C46.2797 41.6 46.0797 41.6 45.9797 41.6C45.8797 41.6 45.8297 41.6 45.6797 41.6C45.6297 41.65 45.5797 41.65 45.4797 41.65C45.4297 41.65 45.3797 41.65 45.3297 41.6C45.1797 41.6 45.1297 41.6 45.0797 41.6H45.0297H44.9297C44.9297 41.6 44.8797 41.6 44.8297 41.55H44.7797L44.4797 41.5C44.3297 41.45 44.0797 41.45 43.9297 41.4C43.8297 41.4 43.6297 41.25 43.4797 41.2C43.4297 41.2 43.3297 41.15 43.2297 41.1C43.2297 41.1 43.1297 41.05 43.0797 41.05C42.9797 41 42.8297 41 42.7297 40.95C42.6797 40.9 42.6297 40.85 42.5297 40.85C42.4797 40.75 42.4797 40.7 42.4297 40.7C42.3797 40.65 42.2297 40.6 42.1297 40.6C42.0297 40.55 41.9797 40.5 41.8797 40.45C41.6797 40.35 41.5797 40.2 41.4797 40.2L41.2297 40.05C41.2297 40 41.1797 40 41.1797 40C41.0797 40 40.9797 39.95 40.9297 39.9C40.9297 40 40.9297 40.05 40.9297 40.1C40.9297 40.2 40.9297 40.35 40.8797 40.45V40.65C40.8797 40.75 40.8797 40.85 40.8797 40.95C40.8797 41 40.8797 41.05 40.8797 41.1C40.7797 41.25 40.7797 41.4 40.7797 41.45C40.7297 41.65 40.6797 41.85 40.6297 42C40.5797 42.15 40.4797 42.3 40.4297 42.5C40.4297 42.55 40.3797 42.6 40.2797 42.6C40.2797 42.6 40.2797 42.65 40.2297 42.65C40.2297 42.7 40.2297 42.7 40.2297 42.75L40.1797 42.85C40.1297 42.95 40.0797 43 40.0297 43.05C39.9297 43.3 39.7297 43.4 39.6297 43.5C39.5797 43.55 39.5297 43.65 39.4297 43.8C39.2797 43.9 39.1797 44.05 38.9797 44.15C38.9297 44.15 38.9297 44.2 38.8797 44.25C38.7797 44.25 38.7797 44.3 38.7797 44.35C38.6797 44.4 38.5797 44.45 38.4797 44.5C38.4297 44.55 38.3297 44.55 38.2297 44.6C38.0797 44.65 37.9797 44.65 37.8297 44.75C37.7297 44.8 37.5797 44.85 37.4797 44.85C37.3297 44.85 37.2797 44.85 37.2297 44.85C37.1797 44.9 37.1297 44.9 37.0797 44.9ZM36.2297 43.55L36.3297 43.5C36.3797 43.65 36.3797 43.65 36.4797 43.65L36.5797 43.8V43.65C36.6297 43.65 36.6797 43.65 36.7297 43.65C36.7797 43.65 36.7797 43.65 36.8297 43.65C36.9797 43.65 36.9797 43.65 36.9797 43.6L37.0297 43.5H37.1297H37.1797C37.2797 43.5 37.4297 43.45 37.5297 43.4L37.9797 43.05C38.0297 43 38.0797 43 38.1797 42.95C38.1797 42.95 38.1797 42.9 38.2297 42.9C38.2797 42.85 38.2797 42.75 38.3797 42.7C38.4797 42.65 38.5297 42.6 38.5797 42.4C38.6297 42.3 38.7297 42.2 38.7797 42.2L38.8797 42.3C38.9297 42.2 38.9297 42.1 38.9797 42.05C39.0297 42 39.0797 41.95 39.0797 41.9C39.1297 41.85 39.1797 41.75 39.1797 41.7C39.2297 41.55 39.3297 41.4 39.4297 41.15C39.4797 41 39.4797 40.85 39.5297 40.65V40.6C39.5297 40.45 39.5297 40.35 39.5797 40.2V40L39.5297 39.15C39.5297 39.1 39.5297 39.1 39.5797 39.05L39.5297 38.85C39.5297 38.7 39.4797 38.55 39.2797 38.45C39.1797 38.35 39.1297 38.2 39.0797 38.15C39.0297 38.1 38.9797 38.05 38.9297 38C38.8797 38 38.7797 38.05 38.7797 38.1C38.6797 38.15 38.6297 38.15 38.5297 38.2L38.4797 38.25C38.4797 38.35 38.3797 38.5 38.2297 38.5C38.2297 38.55 38.1797 38.6 38.1297 38.6C38.0297 38.75 37.5797 39.25 37.5797 39.25C37.5797 39.25 37.5797 39.3 37.5797 39.4C37.4297 39.5 37.2797 39.65 37.2297 39.75C37.1797 40.05 37.0797 40.2 36.8797 40.5L36.7797 40.7C36.7797 40.85 36.7297 40.95 36.6797 41C36.6297 41.2 36.5797 41.4 36.3797 41.5C36.4797 41.75 36.3797 41.95 36.3297 42.1C36.2797 42.4 36.2297 42.65 36.2297 43C36.2297 43.1 36.2297 43.2 36.2797 43.35V43.4L36.2297 43.55ZM62.6832 37.3C62.6832 37.35 62.6832 37.4 62.6832 37.4C62.4832 37.35 62.6332 37.55 62.5332 37.55C62.4332 37.65 62.4832 37.7 62.6832 37.75C62.6832 37.75 62.6832 37.9 62.6332 37.95C62.4332 37.95 62.4832 38.05 62.4832 38.15C62.4332 38.2 62.3832 38.3 62.3832 38.45C62.3832 38.45 62.3832 38.5 62.3832 38.55C62.4332 38.55 62.4832 38.55 62.5332 38.55C62.4332 38.55 62.6832 38.75 62.4832 38.75V38.8C62.6832 39.1 62.3332 39.2 62.4332 39.45C62.2332 39.5 62.3332 39.7 62.3332 39.8C62.3332 39.8 62.2832 39.8 62.2332 39.8C62.4832 40.05 62.2332 40.1 62.2332 40.2C62.2832 40.35 62.2332 40.4 62.2332 40.5C62.2332 40.6 62.2332 40.65 62.2332 40.85C62.2332 41 62.2332 41.25 62.0832 41.4C61.9832 41.5 61.9832 41.65 61.9332 41.75C61.9332 41.85 61.8832 41.9 61.7832 41.8C61.7832 41.8 61.7332 41.75 61.7332 41.8V41.85C61.7832 41.95 61.7832 42.05 61.7832 42.1C61.7332 42.35 61.6832 42.6 61.6332 42.9C61.6332 42.9 61.5832 42.9 61.5832 42.95C61.3832 43 61.3332 43.05 61.3332 43.2C61.3332 43.3 61.3332 43.35 61.2832 43.4C61.2332 43.4 61.1332 43.5 61.1832 43.65C61.1832 43.7 61.1332 43.7 61.0832 43.7C60.9832 43.8 60.8832 43.8 60.9332 43.8C60.9832 44 60.7832 44.05 60.7832 44.25C60.7832 44.35 60.7332 44.45 60.6332 44.45C60.4832 44.5 60.4332 44.6 60.4332 44.7C60.4332 44.8 60.3332 44.9 60.2332 45C60.2332 45 60.2332 45.05 60.1832 45C60.0332 45 59.9832 45.05 59.9832 45.15C59.8332 45.15 59.7832 45.3 59.6332 45.25C59.5832 45.25 59.5832 45.35 59.4332 45.4C59.3332 45.45 59.1832 45.45 58.9332 45.45H58.8832C58.8332 45.45 58.7332 45.45 58.6332 45.45C58.4332 45.45 58.4332 45.5 58.3332 45.5C58.0332 45.45 57.7332 45.4 57.3832 45.15C57.2332 45.05 57.0332 44.85 56.8832 44.65C56.8332 44.5 56.6832 44.35 56.5332 44.2C56.3832 44 56.2832 43.8 56.1832 43.65C55.9832 43.35 55.9332 43 55.6832 42.65C55.5832 42.6 55.5832 42.45 55.5332 42.35C55.4832 42.2 55.4332 42.15 55.3832 42.05C55.2832 41.8 55.0332 41.6 55.0332 41.4C54.9832 41.1 54.7832 40.9 54.7332 40.6C54.4332 40.1 54.2332 39.55 53.9832 39C53.9832 38.95 53.8832 38.85 53.8332 38.8C53.7832 38.8 53.7332 38.8 53.6832 38.85C53.5832 39 53.5832 39.2 53.4332 39.3C53.3332 39.3 53.3832 39.55 53.3332 39.65V39.7C53.2332 39.8 53.2832 40.15 53.1332 40.25C53.0832 40.35 53.0832 40.4 53.0832 40.5C52.9832 40.7 52.9332 41 52.8332 41.3C52.7832 41.5 52.6332 41.65 52.5332 41.8C52.5332 41.85 52.5332 41.95 52.4832 42.05C52.4832 42.2 52.4332 42.5 52.3332 42.6C52.1832 42.75 52.1832 43 52.1332 43.15C52.0332 43.35 51.9832 43.45 51.9332 43.6C51.8832 43.8 51.7832 43.95 51.6332 44.15C51.5832 44.25 51.5332 44.35 51.4832 44.45C51.3832 44.75 51.1332 45 50.9832 45.25C50.8832 45.4 50.7332 45.45 50.5832 45.5C50.4832 45.6 50.3332 45.5 50.1832 45.45C50.0332 45.45 49.9332 45.4 49.7832 45.35C49.5332 45.3 49.4332 45.15 49.3332 45C49.1832 44.9 49.1332 44.75 49.0332 44.65C48.8332 44.4 48.7332 44.2 48.7332 44C48.6832 43.8 48.6332 43.55 48.6332 43.4C48.5832 43.1 48.5832 42.95 48.5332 42.65C48.5332 42.45 48.5332 42.15 48.4832 41.85C48.4832 41.7 48.4332 41.55 48.4332 41.4C48.3832 41.2 48.4332 41 48.4332 40.85C48.4332 40.6 48.4332 40.35 48.4332 40.15C48.4332 40 48.4832 39.8 48.4832 39.7C48.4332 39.5 48.4332 39.3 48.4832 39.1C48.5332 38.95 48.5332 38.8 48.5332 38.6C48.5332 38.55 48.4832 38.55 48.4832 38.5C48.4832 38.45 48.4832 38.35 48.4832 38.3C48.5332 38.2 48.6832 38.15 48.5832 37.95C48.4832 37.75 48.5832 37.6 48.6332 37.5C48.6832 37.4 48.7332 37.3 48.8332 37.2C48.8832 37.15 48.9332 37.1 48.9332 37C48.9832 37 48.9832 37 49.0332 37C49.1332 37.05 49.1832 37.15 49.3832 37.15C49.5332 37.25 49.6832 37.45 49.8832 37.6C49.9332 37.7 49.9332 37.75 49.9832 37.9C50.0332 38.05 50.0832 38.15 50.1332 38.3C50.1332 38.35 50.1332 38.35 50.1332 38.35C49.9832 38.5 49.9832 38.55 49.9832 38.65C49.9832 38.75 49.9832 38.8 49.9832 38.95C49.9832 39.05 50.0332 39.25 49.9832 39.4C49.9332 39.65 49.9832 39.95 49.9332 40.15C49.9332 40.2 49.9332 40.35 49.9332 40.45C49.9332 40.55 49.9332 40.6 49.9332 40.7C49.9332 40.85 49.9332 41 49.9332 41.05C49.9332 41.2 49.9332 41.4 49.9332 41.5C49.9332 41.8 49.9332 42.1 49.9332 42.4C49.9332 42.55 49.9832 42.65 49.9832 42.85C50.0332 43.05 50.0332 43.35 50.0332 43.55C50.0332 43.6 50.0332 43.6 50.0332 43.65C50.0332 43.7 50.0332 43.7 50.0832 43.7C50.1332 43.6 50.1832 43.5 50.2332 43.45C50.3332 43.3 50.4832 43.05 50.5832 42.95C50.6332 42.85 50.6332 42.7 50.6832 42.6C50.7832 42.4 50.9332 42.15 51.0332 41.85C51.1332 41.65 51.2332 41.5 51.2832 41.3C51.3832 41.05 51.4332 40.85 51.4832 40.6C51.4832 40.6 51.5332 40.55 51.5332 40.5C51.5832 40.35 51.6332 40.15 51.6832 39.95C51.8332 39.75 51.8832 39.5 51.9332 39.3C51.9832 39.1 52.0332 38.95 52.0832 38.7C52.0832 38.7 52.1832 38.7 52.1832 38.65C52.3332 38.55 52.5332 38.45 52.4832 38.15C52.4832 38.15 52.5832 38.1 52.5832 38.05C52.6332 37.9 52.7332 37.65 52.7832 37.5C52.8332 37.4 52.9332 37.4 52.9832 37.35C53.0832 37.25 53.1332 37.25 53.2832 37.4C53.3332 37.45 53.4332 37.45 53.5332 37.5C53.8832 37.75 54.0832 38.05 54.3832 38.3C54.6332 38.6 54.7832 38.95 54.9832 39.2H55.0332C54.9832 39.3 55.1332 39.55 55.2332 39.7C55.2832 39.75 55.2832 39.8 55.2832 39.9C55.3832 40.05 55.4332 40.2 55.5332 40.35C55.7332 40.75 55.9832 41.15 56.2332 41.55C56.2332 41.65 56.2832 41.7 56.2832 41.75C56.2832 41.9 56.3832 42.05 56.4832 42.2C56.6332 42.5 56.8332 42.75 56.9332 43.05C56.9832 43.1 56.9832 43.15 57.0332 43.2C57.2332 43.5 57.3832 43.8 57.6332 44.05C57.6832 44.1 57.7332 44.2 57.7332 44.25C57.7832 44.25 57.8332 44.3 57.8832 44.3C57.9832 44.15 58.2332 44.2 58.2832 43.95C58.2832 43.9 58.3332 43.8 58.4832 43.85C58.4832 43.9 58.4832 43.9 58.4832 43.85C58.6332 43.6 58.8332 43.55 58.9332 43.4C59.0832 43.4 59.1332 43.3 59.1832 43.1C59.1832 43 59.2332 43 59.3332 43C59.3832 43 59.4332 43 59.4332 43C59.3832 42.65 59.6332 42.6 59.7332 42.45C59.7832 42.2 59.8832 42.05 59.9832 41.85C60.0832 41.65 60.1832 41.4 60.2832 41.2C60.3332 41.1 60.3332 41 60.3332 41C60.4332 40.85 60.4332 40.7 60.4332 40.6C60.4332 40.6 60.4332 40.45 60.5832 40.5C60.6332 40.5 60.6332 40.4 60.6332 40.25C60.6332 40.2 60.6332 40.2 60.6332 40.15C60.7332 39.95 60.7832 39.75 60.8832 39.6C60.8832 39.55 60.9332 39.5 60.8832 39.4C60.8832 39.4 60.9332 39.4 60.9332 39.3C60.9832 39.3 60.9832 39.25 60.9832 39.15C60.9832 39.05 60.8832 38.95 61.1832 38.95C61.1832 38.95 61.2332 38.95 61.1832 38.85C60.9332 38.65 61.1832 38.6 61.1832 38.5C61.1832 38.35 61.2832 38.25 61.2832 38.15C61.3332 38.1 61.4332 37.95 61.3832 37.75C61.3832 37.6 61.3832 37.4 61.4832 37.25C61.6832 37.1 61.6332 36.75 61.7832 36.55C61.7832 36.55 61.7832 36.55 61.7832 36.5C61.7832 36.3 61.7832 36.15 61.7832 36C61.7832 35.8 61.8332 35.7 61.8832 35.6C61.8832 35.6 61.8832 35.6 61.9332 35.55C61.9832 35.35 61.9832 35.25 62.0832 35.1C62.0832 35.05 62.0832 35 62.1832 35C62.3832 35.1 62.3832 34.85 62.4832 34.8C62.4832 34.75 62.4832 34.7 62.5332 34.7C62.6332 34.75 62.6832 34.8 62.6832 34.8C62.6832 35 62.6832 35.15 62.7332 35.25C62.7332 35.35 62.7332 35.55 62.7332 35.7C62.7332 35.8 62.7332 36 62.6832 36.15C62.6832 36.15 62.7332 36.3 62.6332 36.15C62.6332 36.15 62.6332 36.25 62.6332 36.3C62.6832 36.5 62.6832 36.55 62.6832 36.6C62.6332 36.7 62.6832 36.8 62.6832 36.95C62.6832 37 62.6832 37.15 62.6832 37.3ZM62.1832 38.1C62.0832 38.05 62.0832 38.15 62.1832 38.15C62.1832 38.15 62.1832 38.15 62.1832 38.1C62.1832 38.05 62.2332 38 62.2332 38C62.1832 38 62.1832 37.95 62.1832 37.95C62.1832 38 62.1832 38.05 62.1832 38.1ZM62.2332 37.7C62.2332 37.7 62.2332 37.7 62.2332 37.75C62.2332 37.65 62.2832 37.6 62.2832 37.55C62.3332 37.25 62.3832 36.95 62.3832 36.7C62.3832 36.6 62.3832 36.6 62.3832 36.55C62.3832 36.6 62.3332 36.6 62.2832 36.6V36.7C62.2332 36.95 62.2332 37.2 62.2332 37.5C62.2332 37.55 62.2332 37.6 62.2332 37.7ZM61.9332 38.95H61.9832C61.9832 38.85 62.0832 38.8 62.0832 38.7C62.0832 38.65 61.9832 38.65 61.9832 38.65C61.9832 38.75 61.9332 38.85 61.9332 38.95ZM62.0832 38.5C62.0832 38.55 62.0832 38.55 62.0832 38.55C62.0832 38.55 62.0832 38.55 62.0832 38.5ZM62.0832 38.45C62.0832 38.35 62.0832 38.35 62.0832 38.35C62.0832 38.35 62.0832 38.35 62.0832 38.45ZM72.0941 36.75C72.0941 36.8 72.0441 36.85 72.0941 36.95C72.2441 37.05 72.1441 37.1 71.9441 37.15C71.7941 37.25 71.4441 37.2 71.3941 37.4C71.3441 37.45 71.1941 37.4 71.0941 37.45C70.9941 37.45 70.9941 37.5 70.9941 37.5C70.9941 37.55 70.9441 37.55 70.9441 37.6C70.7441 37.65 70.5941 37.7 70.4441 37.75C70.3941 37.75 70.3441 37.75 70.2941 37.75C70.2441 37.8 70.2941 37.95 70.1441 37.8C70.1441 37.9 69.8441 37.75 70.0441 38C70.0441 38 69.9941 38.1 69.9441 38.1C69.7941 38.1 69.7441 38.15 69.6941 38.25C69.6441 38.3 69.5941 38.35 69.4441 38.35C69.2941 38.55 68.9941 38.7 68.7941 38.85C68.7441 38.95 68.6941 38.95 68.6441 38.95C68.5441 39.05 68.4441 39.2 68.2941 39.3H68.1941C68.2441 39.45 68.1941 39.5 68.1441 39.55C67.9941 39.65 67.9441 39.75 67.7941 39.8C67.6941 39.9 67.7441 40.05 67.6941 40.15C67.5441 40.2 67.3941 40.25 67.3441 40.4C67.2441 40.55 67.0441 40.65 66.9941 40.9C66.9941 41.15 66.8441 41.4 66.7441 41.65C66.7441 41.75 66.6941 41.85 66.6441 41.9C66.5441 42.1 66.5441 42.2 66.4441 42.4C66.4441 42.5 66.3941 42.6 66.3441 42.65C66.2941 42.75 66.2441 42.9 66.1941 43C66.1441 43.05 66.1441 43.15 66.1441 43.3C66.0941 43.4 66.0941 43.5 66.0441 43.65C66.0441 43.85 66.0441 44 65.9941 44.15C65.8941 44.4 66.0441 44.7 66.0441 44.95C65.9941 45.05 65.7441 45.05 65.5441 45.05C65.4941 45 65.4441 45 65.3941 45C65.3441 45.05 65.2441 45.05 65.0441 44.95C64.9441 44.9 64.7441 44.8 64.5941 44.65C64.5441 44.55 64.4441 44.4 64.2941 44.3C64.2441 44.25 64.1441 44.15 64.1441 44.1C63.9441 43.9 63.7941 43.7 63.8441 43.5C63.8941 43.35 63.8941 43.05 63.8941 42.85C63.8941 42.75 63.9941 42.75 63.8441 42.65C63.8441 42.65 63.8441 42.6 63.8941 42.6C64.0941 42.6 64.0441 42.5 63.9941 42.4C63.9941 42.3 64.0441 42.2 64.0441 42.1C64.0441 42 64.0441 41.9 64.0441 41.8V41.75C64.1441 41.45 64.0441 41.1 63.9941 40.75C63.9941 40.6 64.0441 40.45 64.0441 40.25C64.0441 40.2 63.9941 40.05 63.9941 39.95C63.9941 39.7 63.9941 39.45 63.9941 39.2C63.9941 39.2 63.9441 39.15 63.9441 39.1C63.9441 39.05 63.9441 39 63.9441 39C63.8941 38.95 63.9441 38.8 63.8941 38.75C63.8941 38.7 63.8941 38.65 63.8941 38.6C63.8941 38.35 63.8941 38.1 63.8941 37.8C63.9441 37.65 63.9941 37.45 63.9941 37.25C64.0441 37.15 63.9941 37 63.9941 36.85C63.9941 36.8 63.9941 36.75 64.0441 36.75C64.1441 36.75 64.2441 36.7 64.1441 36.55C64.1441 36.45 64.3941 36.5 64.4441 36.45C64.4441 36.35 64.4941 36.35 64.4941 36.35C64.5441 36.35 64.5441 36.35 64.5441 36.35C64.5941 36.45 64.6441 36.45 64.7441 36.45C64.7941 36.5 64.8441 36.45 64.9441 36.5C64.9941 36.5 65.0941 36.55 65.1941 36.6C65.2941 36.6 65.3441 36.7 65.3441 36.75C65.3441 36.95 65.4441 37.15 65.7441 37.35C65.7941 37.45 65.8441 37.6 65.8941 37.65C65.8941 37.8 65.7941 37.95 65.7941 38.1C65.7941 38.15 65.7441 38.15 65.7441 38.15C65.5941 38.15 65.4941 38.15 65.5441 38.2C65.7441 38.5 65.7441 38.55 65.5941 38.7C65.5941 38.75 65.6441 38.85 65.6441 38.95C65.8941 38.95 65.7441 38.7 65.9941 38.75V38.7C65.9941 38.65 65.9941 38.6 65.9941 38.55C66.1441 38.45 66.2941 38.25 66.4441 38.15C66.4941 38.05 66.5441 38 66.6941 38C66.8441 38 66.8941 37.95 66.9441 37.9C66.9941 37.9 67.0441 37.75 67.0941 37.75C67.1941 37.7 67.2941 37.7 67.0441 37.6C67.0441 37.6 67.0941 37.5 67.1941 37.45C67.1941 37.45 67.2441 37.5 67.2941 37.5C67.3441 37.5 67.3441 37.5 67.3441 37.5C67.3441 37.45 67.3441 37.45 67.3441 37.4C67.3441 37.45 67.3941 37.5 67.4941 37.55C67.4941 37.5 67.4941 37.45 67.4941 37.45C67.4941 37.3 67.8441 37.2 68.1441 37.25C68.1941 37.25 68.2941 37.35 68.2941 37.3C68.3941 37.3 68.4441 37.25 68.4441 37.2C68.4941 37.2 68.3941 37.1 68.3441 37.05C68.2941 37 68.2441 37 68.2441 37C68.2441 36.95 68.2441 36.95 68.2941 36.95C68.5441 37 68.4941 36.95 68.4441 36.75C68.6441 36.85 68.6441 36.95 68.7441 36.95C68.7941 36.95 68.8441 37 68.8941 37C68.8941 36.95 68.9441 36.95 68.9441 36.95C68.8441 36.75 68.9441 36.8 68.9941 36.85C69.0941 36.85 69.1441 36.85 69.1441 36.85C68.9941 36.7 69.2941 36.8 69.2941 36.7L69.3941 36.75C69.4941 36.85 69.5941 36.85 69.6941 36.8H69.7941C69.9941 36.85 70.1441 36.75 70.1941 36.7C70.2441 36.6 70.1941 36.6 70.1941 36.55C70.3441 36.55 70.4941 36.55 70.6441 36.55C70.6941 36.55 70.7441 36.55 70.7941 36.55C70.9441 36.55 71.0941 36.55 71.2441 36.55C71.3941 36.5 71.4941 36.55 71.7941 36.6C71.7941 36.6 71.8941 36.6 72.0941 36.7V36.75ZM68.2441 38.05C68.3441 38.1 68.3941 38.1 68.4441 38.15C68.4941 38.15 68.5441 38.15 68.6441 38.15C68.6441 38.1 68.5441 38.1 68.5441 38.05C68.5441 38 68.6441 38 68.6441 37.95C68.7441 38.1 68.7441 38 68.7941 37.95C68.8941 37.9 68.9441 37.75 69.0941 37.75C69.2941 37.6 69.4941 37.5 69.7441 37.4C69.7941 37.4 69.7941 37.4 69.7941 37.4C69.9941 37.35 70.1941 37.35 70.3441 37.2C70.4441 37.15 70.5441 37.1 70.5941 37.05C70.5941 36.95 70.6441 37 70.7441 37.05C70.7941 37.05 70.7941 37.1 70.8441 37.15C70.8441 37.05 70.8941 37 70.8941 36.95V36.85C70.7941 36.8 70.6941 36.75 70.5941 36.75C70.5441 36.7 70.5441 36.75 70.5441 36.8C70.4941 36.85 70.4441 36.95 70.2941 36.95C70.2441 36.85 70.1941 36.85 70.1441 36.95C69.9441 36.95 69.7941 37 69.6941 37.1C69.4941 37.15 69.3941 37.2 69.3441 37.25C69.1941 37.3 69.0941 37.4 68.9441 37.45C68.9441 37.45 68.9441 37.4 68.8941 37.4C68.9941 37.35 69.1441 37.25 69.2941 37.2C69.2441 37.15 69.2441 37.15 69.1941 37.15C68.9941 37.2 68.8441 37.25 68.6441 37.35C68.7441 37.4 68.7941 37.45 68.8941 37.5C68.7941 37.5 68.7441 37.5 68.6941 37.5C68.8441 37.6 68.6941 37.6 68.6941 37.65C68.6441 37.6 68.6441 37.5 68.6441 37.5C68.6441 37.45 68.4441 37.4 68.4441 37.4C68.3941 37.5 68.3441 37.6 68.2941 37.7C68.3941 37.7 68.3941 37.7 68.3941 37.7C68.4441 37.7 68.5441 37.7 68.6441 37.75C68.5441 37.75 68.6441 37.75 68.5441 37.75C68.4441 37.9 68.3941 37.95 68.2941 38L68.2441 38.05ZM65.5441 39.3C65.5941 39.3 65.5941 39.3 65.5941 39.3C65.5941 39.2 65.6441 39.1 65.6441 39C65.6441 39 65.6441 39 65.5941 38.95H65.5441C65.4941 39.05 65.4941 39.2 65.4941 39.3H65.5441ZM66.6941 38.85C66.7941 39 66.8941 39.05 66.9441 39C66.9441 38.95 66.9941 38.95 67.0441 38.8C66.8441 38.75 66.9441 39 66.6941 38.85ZM67.1941 38.7H67.0941C67.0941 38.7 67.0941 38.7 67.0441 38.7C67.0941 38.7 67.0941 38.75 67.0941 38.75C67.1941 38.75 67.1941 38.7 67.1941 38.7ZM67.3441 38.55V38.6H67.3941C67.3941 38.6 67.4441 38.6 67.3941 38.6C67.3941 38.6 67.3941 38.55 67.3441 38.55ZM71.1941 36.95H71.1441V37C71.1941 37 71.1941 36.95 71.1941 36.95ZM70.0441 36.55C69.9441 36.55 69.8941 36.55 69.7941 36.55C69.8441 36.55 69.8941 36.5 69.9941 36.5C69.9941 36.55 69.9941 36.55 70.0441 36.55ZM67.9441 37.15C67.9441 37.15 67.9441 37.15 67.9441 37.2L67.8941 37.15C67.8941 37.15 67.8941 37.15 67.8941 37.1C67.8941 37.1 67.9441 37.1 67.9441 37.15ZM66.9441 37.65C66.9441 37.65 66.9441 37.65 66.9441 37.7C66.9441 37.7 66.9441 37.7 66.9441 37.65ZM77.8125 42.8C77.8125 42.75 77.8625 42.75 77.9125 42.75C77.9625 42.7 78.0125 42.7 78.0625 42.7C78.4125 42.6 78.7625 42.5 79.1125 42.4C79.3125 42.35 79.4625 42.3 79.7125 42.2C79.8625 42.1 80.1125 42.05 80.2625 42C80.3625 42 80.4125 41.9 80.5125 41.9C80.6625 41.9 80.8625 41.9 81.0625 41.9C81.1125 41.9 81.1125 41.9 81.1125 41.85C80.9625 41.65 81.2625 41.8 81.2625 41.65C81.3125 41.5 81.4625 41.5 81.6625 41.5C81.8625 41.4 82.1125 41.25 82.2625 41.15C82.4125 41.05 82.7125 41 82.8125 40.9C83.1125 40.8 83.3125 40.65 83.5625 40.55C83.9125 40.35 84.2625 40.15 84.6625 39.95C84.9625 39.75 85.2125 39.6 85.5125 39.5C85.9125 39.1 86.3125 38.75 86.7625 38.5C86.8625 38.4 87.1125 38.35 87.2125 38.25C87.8125 37.7 88.2625 38.75 87.3625 39.25C87.2625 39.3 87.3125 39.4 87.2625 39.45C87.2625 39.5 87.2625 39.5 87.2125 39.5C87.0625 39.65 86.8125 39.9 86.6625 39.9C86.3125 40 86.1625 40.25 85.9125 40.4C85.6625 40.55 85.4125 40.7 85.1125 40.85C84.9625 41 84.7125 41.15 84.5125 41.25C84.3125 41.4 84.1625 41.45 84.0625 41.5C84.0125 41.55 83.9125 41.55 83.8125 41.6C83.8125 41.65 83.7625 41.65 83.7125 41.7C83.6625 41.8 83.6125 41.8 83.6125 41.85L83.5625 41.9C83.1625 41.95 83.0125 42.15 82.7125 42.3C82.3625 42.35 82.2625 42.45 81.9125 42.5C81.8625 42.55 81.8625 42.65 81.8125 42.65C81.5625 42.75 81.3125 42.85 81.1125 42.95C80.7125 43.1 80.3625 43.25 79.9625 43.4C79.8625 43.45 79.7125 43.45 79.5625 43.5C79.3125 43.55 79.1125 43.65 78.8625 43.65C78.7625 43.75 78.6625 43.65 78.6125 43.65C78.4125 43.75 78.2625 43.8 78.2125 43.85C78.1625 43.85 78.1625 43.9 78.0625 43.9C77.8125 43.95 77.5125 43.95 77.2625 43.95C77.1625 43.95 77.1125 43.95 77.0125 43.95C76.9125 43.95 76.8125 43.95 76.7125 44C76.6125 44.1 76.4125 44.1 76.2125 44.1C75.9125 44.1 75.6625 44 75.4125 44.1C75.3125 44.1 75.2125 44 75.0125 44C74.7625 44.1 74.4625 43.8 74.1125 43.75C73.9125 43.65 73.6125 43.5 73.4125 43.3C73.1125 43.05 72.9125 42.8 72.6125 42.5C72.4625 42.2 72.1625 41.9 72.1125 41.55C72.0125 41.25 71.9125 40.95 71.9125 40.65C71.9125 40.55 71.9125 40.4 71.9125 40.25C71.9125 39.95 72.0125 39.6 72.1625 39.35C72.3125 39.05 72.5625 38.75 72.7625 38.55C72.9625 38.3 73.1625 38.1 73.3625 37.9C73.5625 37.7 73.7625 37.55 73.9625 37.45C74.0625 37.3 74.2125 37.3 74.3125 37.25C74.4125 37.2 74.4125 37.1 74.5125 37.05C74.5125 37.05 74.5625 37.05 74.6125 37.05C74.7125 37 74.8125 36.95 74.9125 36.85C74.9125 36.85 74.9125 36.85 74.9625 36.85C75.2125 36.95 75.3125 36.75 75.4125 36.7C75.6625 36.65 75.8125 36.65 75.9125 36.65C76.0625 36.65 76.2125 36.55 76.3125 36.5C76.3625 36.5 76.4625 36.5 76.5125 36.5C76.6625 36.5 76.7625 36.55 76.8625 36.5C77.0125 36.45 77.3125 36.65 77.4625 36.65C77.6625 36.65 77.8125 36.65 77.9125 36.65C78.1625 36.65 78.3625 36.8 78.4125 37.05V37.1C78.6625 37.35 78.6625 37.55 78.6625 37.8C78.7125 37.9 78.6625 37.95 78.6625 38.05C78.6625 38.2 78.6125 38.3 78.5125 38.5C78.4625 38.6 78.4125 38.7 78.3125 38.75C78.2125 39 78.2125 39.15 78.0125 39.35C77.9125 39.5 77.8125 39.6 77.6625 39.7C77.4125 39.95 77.0125 40 76.8125 40.35C76.8125 40.35 76.8125 40.4 76.7625 40.4C76.3625 40.35 76.3125 40.7 76.0125 40.8C75.7625 40.9 75.4625 41.1 75.2125 41.15C75.0125 41.2 74.9125 41.2 74.7125 41.2H74.6125C74.5625 41.35 74.4125 41.25 74.3625 41.15C74.3125 41.1 74.3125 41 74.3625 40.95C74.5625 40.9 74.5625 40.7 74.8125 40.7C74.9625 40.65 75.0125 40.5 75.0625 40.4C75.0625 40.35 75.2125 40.35 75.2625 40.3H75.3125C75.4125 40.15 75.6625 40.15 75.7125 40C75.9125 39.75 76.2125 39.6 76.5125 39.4C76.6125 39.35 76.6625 39.15 76.7625 39.05C76.8125 39 76.9125 38.9 76.9625 38.85C77.1125 38.65 77.2625 38.5 77.3625 38.3C77.4125 38.2 77.4625 38.1 77.5125 37.95L77.4125 37.8C77.1125 37.8 76.8125 37.8 76.5625 37.95C76.3625 38 76.2125 38 75.9625 38.1C75.8625 38.1 75.8125 38.2 75.7125 38.25C75.7125 38.25 75.6625 38.25 75.5625 38.25C75.4125 38.25 75.3625 38.4 75.2125 38.45C74.8125 38.5 74.7625 38.85 74.4625 39C74.2625 39.1 74.1625 39.4 73.9625 39.5C73.6625 39.75 73.5625 40.1 73.4125 40.4C73.3625 40.6 73.2625 40.85 73.1625 41.1C73.1625 41.15 73.2625 41.2 73.2625 41.35C73.3625 41.5 73.3625 41.7 73.4125 41.95C73.5125 42.2 73.6625 42.4 73.9125 42.55C74.0125 42.6 74.0625 42.7 74.1625 42.75C74.4125 42.9 74.6125 42.85 74.8625 42.85C74.9625 42.8 75.0125 42.85 75.1125 42.85C75.2625 42.85 75.3625 42.85 75.4125 42.85C75.4625 42.85 75.5125 42.85 75.5125 42.85C75.8125 43.05 76.0125 42.95 76.2625 42.95C76.4625 42.95 76.5625 42.85 76.7625 42.8C76.8125 42.75 76.9125 42.8 76.9625 42.8C77.1625 42.8 77.3625 42.8 77.5125 42.8C77.6625 42.8 77.7625 42.8 77.8125 42.8ZM95.0207 42.6C95.0707 42.6 95.1207 42.6 95.1707 42.6C95.1707 42.65 95.1707 42.7 95.2207 42.7C95.0707 42.85 94.8207 42.9 94.6707 42.95C94.5707 43 94.4207 43 94.3707 43C94.3207 43 94.2207 43 94.1207 43C94.0707 43 93.8707 43.05 93.7707 43.05C93.4207 43.15 93.0707 43.3 92.6207 43.2C92.3207 43.15 91.8707 43.2 91.4707 43.05V43C91.2707 43.2 90.9707 42.9 90.7207 42.85C90.4707 42.75 90.3207 42.55 90.1207 42.4C90.0207 42.35 89.9207 42.35 89.9207 42.2C89.8207 42.2 89.6707 42.2 89.6707 42C89.6707 42 89.6207 41.95 89.6207 41.9C89.4207 41.85 89.3207 41.7 89.2207 41.5C89.1707 41.4 89.1707 41.15 88.9207 41.15C88.8207 41.15 88.7207 40.85 88.7207 40.65C88.6707 40.6 88.6707 40.6 88.5707 40.55C88.5207 40.5 88.4707 40.45 88.4707 40.4C88.3207 40.1 88.2707 39.8 88.1207 39.6C88.0707 39.55 88.0207 39.5 87.9707 39.5C87.9207 39.6 87.8707 39.65 87.8207 39.7C87.7707 39.75 87.7207 39.75 87.6207 39.8C87.5707 39.9 87.5207 40.05 87.4707 40.15C87.4707 40.2 87.4207 40.35 87.3207 40.4C87.1707 40.4 87.2207 40.5 87.1707 40.6C87.0707 40.65 87.0207 40.75 86.9707 40.9C86.7207 41.2 86.4707 41.6 86.1707 41.95C85.9707 42.2 85.8207 42.5 85.5707 42.75C85.5207 42.85 85.5207 42.9 85.4707 42.95C85.3707 43.1 85.1707 43.3 85.0707 43.45C85.0207 43.5 84.9707 43.55 84.9207 43.6C84.8707 43.65 84.8207 43.7 84.7707 43.7C84.6707 43.65 84.6207 43.7 84.5707 43.85C84.5207 43.9 84.5207 43.9 84.4207 43.85C84.3207 43.8 84.1707 43.8 84.0707 43.65C83.9707 43.6 83.9207 43.5 83.8207 43.4C83.7707 43.35 83.7207 43.3 83.6707 43.2C83.4207 43 83.3207 42.7 83.1707 42.45C83.1207 42.2 83.1707 42.2 83.3207 42.15C83.3207 42.1 83.3207 42.05 83.3207 41.95C83.3207 41.8 83.3207 41.7 83.4207 41.6C83.5207 41.5 83.6207 41.4 83.6207 41.15C83.6207 41.1 83.6707 41.05 83.6707 41.05C83.7207 41 83.8207 40.9 83.9207 40.75V40.7C83.7707 40.45 83.9707 40.4 84.0207 40.2C84.0707 40.1 84.1207 39.95 84.1207 39.8C84.1707 39.75 84.1707 39.75 84.2207 39.75C84.2207 39.75 84.2707 39.75 84.2707 39.7C84.1707 39.55 84.2207 39.45 84.3207 39.4C84.3707 39.4 84.3707 39.3 84.3707 39.3C84.2207 39.2 84.3707 39.1 84.3207 39C84.3207 38.95 84.3207 38.95 84.3207 38.95C84.5207 39 84.4207 38.75 84.4707 38.7C84.5207 38.65 84.4707 38.55 84.6207 38.6C84.6207 38.65 84.6707 38.6 84.6707 38.6C84.6707 38.55 84.7707 38.45 84.8707 38.35C84.8707 38.3 84.8707 38.3 84.9207 38.3C84.9707 38.35 85.0207 38.35 85.0707 38.35C85.2707 38.55 85.4707 38.65 85.6207 38.8C85.7207 38.85 85.7707 38.85 85.8207 38.95C85.8707 39.1 85.9207 39.05 85.9707 39C86.0707 38.8 86.1707 38.65 86.2707 38.5C86.2707 38.45 86.3707 38.35 86.4207 38.25C86.5707 38.15 86.6707 37.9 86.9207 37.9C86.9707 37.9 87.0207 37.8 87.0207 37.75C87.0707 37.65 87.1707 37.5 87.2707 37.35C87.2707 37.35 87.3207 37.3 87.3207 37.35C87.4707 37.35 87.5707 37.4 87.7707 37.45C87.8707 37.45 87.9707 37.55 88.1207 37.7C88.2707 37.75 88.3707 37.75 88.4707 37.95C88.6707 38.15 88.7707 38.45 88.8707 38.65C88.9707 38.85 89.0707 39 89.1707 39.2C89.2707 39.45 89.3707 39.7 89.4207 39.95C89.5207 40.2 89.6207 40.55 89.8207 40.75C89.9207 41 90.1707 41.25 90.3707 41.45C90.5707 41.55 90.7207 41.55 90.9207 41.6C91.2207 41.7 91.4707 41.75 91.7707 41.8C91.8707 41.8 91.9207 41.8 92.0207 41.75H92.1207C92.3207 41.95 92.3207 41.8 92.3207 41.8C92.4207 41.75 92.6207 41.8 92.7707 41.8C92.8707 41.75 93.0707 41.75 93.2207 41.7C93.2707 41.7 93.2707 41.75 93.3207 41.75C93.3707 41.75 93.4207 41.8 93.4207 41.75C93.4207 41.6 93.6707 41.7 93.7207 41.65C93.8207 41.65 93.9707 41.65 94.1207 41.65C94.2207 41.6 94.3207 41.55 94.3707 41.5C94.5707 41.45 94.5707 41.5 94.6207 41.45C94.7707 41.3 95.0207 41.3 95.1707 41.25C95.2707 41.2 95.3207 41.05 95.4707 41C95.5707 40.95 95.6707 40.85 95.8207 40.85C95.9207 40.85 95.9707 40.75 96.0207 40.75C96.1207 40.65 96.2707 40.6 96.3707 40.6C96.5207 40.5 96.6207 40.45 96.7207 40.35C96.8207 40.25 96.8207 40.2 96.9207 40.35L97.0707 40.25C97.0207 40.05 97.2207 40.05 97.2707 39.95C97.4207 39.8 97.6707 39.95 97.7207 39.7H97.7707C97.7707 39.75 97.7707 39.75 97.8207 39.8C97.8207 39.9 97.7707 39.9 97.8207 39.95C97.8207 40 97.8707 40 97.8707 40C97.9207 40 97.9207 39.95 97.9207 39.9C98.0207 39.9 98.0207 39.8 97.9207 39.8C97.7707 39.5 98.1207 39.5 98.1707 39.3C98.1707 39.3 98.1707 39.3 98.2207 39.4C98.3207 39.5 98.3707 39.5 98.4207 39.45C98.5707 39.4 98.6207 39.4 98.6707 39.3H98.7207C98.6707 39.1 98.8207 39.1 99.0207 39C99.0707 38.95 99.1207 38.95 99.1707 39.1C99.2207 39.2 99.2207 39.3 99.3207 39.2C99.5207 39.55 99.5207 39.55 99.2707 39.7C99.2207 39.75 99.1707 39.9 99.1207 39.95C99.0707 40 99.0707 40.05 99.0207 40.05C98.8707 40 98.8707 39.9 98.8207 39.8C98.8207 39.9 98.8207 39.95 98.8207 39.95C98.6707 39.9 98.6707 40.15 98.5707 40.2C98.4207 40.2 98.4207 40.35 98.3707 40.45C98.2707 40.55 98.2207 40.6 98.1707 40.7C98.1207 40.75 98.0207 40.85 98.0207 40.85C97.9207 40.9 97.8207 40.9 97.7707 40.9L97.7207 40.95C97.7207 40.95 97.7207 40.9 97.6707 40.85C97.6707 40.9 97.7207 40.95 97.7207 41C97.6707 41 97.6707 41 97.6707 41C97.6207 41.05 97.5707 41.1 97.5207 41.1C97.4207 41.15 97.3707 41.2 97.2707 41.25C97.2707 41.3 97.2707 41.4 97.2207 41.4C97.2207 41.4 97.2207 41.45 97.2207 41.5H97.2707C97.4207 41.4 97.6207 41.25 97.7207 41.1C97.7207 41.05 97.7707 41.05 97.8207 41.05C98.0207 41.05 98.0207 41 98.0207 40.85C98.0207 40.85 98.1207 40.75 98.1707 40.7C98.2207 40.7 98.2707 40.7 98.3707 40.7C98.3707 40.75 98.3707 40.75 98.3707 40.75C98.3207 40.85 98.2707 40.9 98.1707 40.95C98.1707 41 98.1707 41 98.1207 41.05C97.8207 41.25 97.6207 41.45 97.3207 41.65C97.2707 41.7 97.2207 41.8 97.1707 41.85C97.1207 41.9 97.1207 41.9 97.0707 41.9C96.8707 41.8 96.8207 41.95 96.8207 42.05C96.5207 42.2 96.2707 42.3 95.9707 42.45C95.8207 42.55 95.6207 42.6 95.4707 42.6C95.3707 42.6 95.3207 42.6 95.2707 42.55C95.3707 42.5 95.5207 42.5 95.5707 42.4V42.35C95.5707 42.3 95.5707 42.3 95.5707 42.3C95.3707 42.3 95.2207 42.35 95.1207 42.35C95.0207 42.35 95.0207 42.45 95.0207 42.6C95.0207 42.55 94.9207 42.55 94.9207 42.5V42.55L95.0207 42.6ZM95.6207 42.15C95.8207 42.35 95.8207 42.35 95.9207 42.3C96.0707 42.2 96.2207 42.15 96.3707 42.1V42.05C96.5707 42.05 96.5707 41.9 96.6707 41.85C96.6707 41.8 96.6207 41.8 96.6207 41.8C96.3707 41.9 95.9707 42.05 95.6207 42.15ZM96.9207 41.45C96.8207 41.55 96.8207 41.6 96.8207 41.65C96.8207 41.7 96.8707 41.75 97.0207 41.8C96.9207 41.7 96.9207 41.6 96.9207 41.45ZM94.8207 42.6V42.55C94.7707 42.55 94.6207 42.55 94.5707 42.6H94.4207C94.5707 42.65 94.5707 42.65 94.5707 42.65C94.6707 42.65 94.7707 42.6 94.8207 42.6ZM94.1207 42.7V42.75C94.2207 42.7 94.3207 42.7 94.3707 42.65V42.6H94.3207C94.2207 42.6 94.1707 42.65 94.1207 42.7ZM97.2207 41.5C97.1707 41.5 97.1707 41.55 97.1707 41.55C97.1207 41.55 97.0707 41.5 97.0707 41.5C97.0707 41.45 97.0707 41.45 97.1207 41.45C97.1207 41.4 97.1707 41.45 97.2207 41.5ZM99.6207 39.3C99.6207 39.4 99.6207 39.45 99.6207 39.5H99.5707C99.5707 39.45 99.5707 39.4 99.5207 39.3C99.5707 39.3 99.5707 39.3 99.6207 39.3ZM98.6207 40.6C98.6207 40.55 98.6207 40.55 98.6207 40.55C98.6207 40.55 98.6207 40.55 98.5707 40.55C98.5707 40.55 98.6207 40.55 98.6207 40.6ZM101.377 43.95C101.177 43.95 100.977 43.95 100.777 43.9C100.427 43.85 100.177 43.8 99.8773 43.65C99.7773 43.6 99.6273 43.55 99.5273 43.5C99.2773 43.4 99.1773 43.3 99.0273 43.15L98.9273 43.05C98.8273 42.95 98.7273 42.9 98.6273 42.8C98.4273 42.6 98.2773 42.45 98.2773 42.2L98.1773 42.1L98.0773 41.95C98.0773 41.9 98.0273 41.85 98.0273 41.85C97.9773 41.75 97.9273 41.7 97.8773 41.6C97.8773 41.45 97.8273 41.35 97.8273 41.2V41.05V41C97.7773 40.9 97.7773 40.85 97.7773 40.75C97.8273 40.55 97.8273 40.3 97.8773 40.1C97.8773 40.05 97.9273 40 97.9273 39.95C97.9273 39.85 97.9273 39.75 98.0273 39.65C98.0773 39.65 98.0773 39.6 98.1273 39.6C98.1273 39.5 98.0773 39.4 98.1273 39.35C98.1773 39.3 98.2273 39.2 98.2773 39.15C98.3773 39.05 98.4273 38.95 98.4773 38.85C98.5273 38.7 98.6273 38.6 98.7273 38.5C98.7773 38.4 98.8273 38.35 98.8773 38.25C98.9273 38.2 98.9273 38.15 98.9273 38.1C98.9773 38 99.0273 37.95 99.0273 37.85C99.0773 37.8 99.1273 37.75 99.1773 37.7C99.2273 37.65 99.2273 37.65 99.2773 37.65C99.2273 37.45 99.4273 37.4 99.5273 37.35C99.6273 37.3 99.6273 37.3 99.6773 37.25L99.8773 37.05C99.9773 36.9 100.077 36.85 100.177 36.75C100.277 36.7 100.327 36.65 100.427 36.6C100.527 36.6 100.627 36.55 100.727 36.55C100.777 36.5 100.927 36.5 100.977 36.45C101.077 36.4 101.177 36.35 101.277 36.3C101.327 36.25 101.427 36.25 101.527 36.2C101.577 36.2 101.627 36.15 101.777 36.15H101.877H101.927C101.977 36.15 102.027 36.15 102.077 36.1C102.127 36.1 102.177 36.05 102.227 36.05H102.327H102.427H102.577C102.677 36.05 102.777 36.05 102.877 36.05C102.927 36.05 103.027 36.05 103.077 36.05H103.177C103.327 36.1 103.377 36.1 103.477 36.1C103.677 36.1 103.977 36.25 104.077 36.4C104.227 36.5 104.327 36.55 104.377 36.65C104.377 36.7 104.377 36.75 104.377 36.8C104.477 36.8 104.577 36.9 104.627 37C104.627 37.05 104.627 37.15 104.527 37.2L104.377 37.7C104.327 37.95 104.127 38.1 103.927 38.3C103.777 38.4 103.627 38.5 103.377 38.55C103.277 38.55 103.227 38.55 103.127 38.55H103.027C103.027 38.55 102.827 38.5 102.777 38.35C102.727 38.25 102.727 38.15 102.777 38C102.777 37.95 102.827 37.9 102.877 37.8C102.927 37.75 102.977 37.7 102.977 37.6C102.977 37.55 102.977 37.5 102.977 37.45C102.827 37.5 102.677 37.55 102.477 37.6C102.377 37.65 102.227 37.7 102.127 37.75C102.027 37.85 101.877 37.9 101.777 38C101.677 38.05 101.577 38.15 101.477 38.2C101.427 38.3 101.377 38.35 101.327 38.4C101.277 38.4 101.227 38.45 101.177 38.5C101.127 38.5 101.127 38.55 101.077 38.55L100.927 38.7C100.777 38.8 100.577 38.95 100.427 39.1C100.377 39.15 100.377 39.2 100.377 39.25C100.377 39.3 100.327 39.35 100.327 39.4L100.277 39.45H100.177L100.027 39.4L100.127 39.5C100.027 39.6 99.9273 39.75 99.8773 39.85C99.7773 40 99.6773 40.15 99.6273 40.35C99.5773 40.45 99.5273 40.5 99.5273 40.6C99.5273 40.65 99.4773 40.75 99.4773 40.85C99.4273 41 99.3773 41.2 99.3773 41.4C99.4273 41.75 99.5273 42.05 99.7773 42.3C99.8273 42.35 99.8273 42.45 99.8773 42.5C99.9773 42.6 100.027 42.65 100.127 42.75C100.227 42.85 100.427 42.9 100.577 42.9C100.677 42.9 100.927 42.9 100.927 42.9C101.027 42.75 101.277 42.75 101.477 42.75H101.627C101.777 42.75 101.927 42.7 102.027 42.65C102.077 42.65 102.127 42.65 102.227 42.6C102.227 42.6 102.277 42.6 102.327 42.6C102.377 42.55 102.477 42.55 102.527 42.5C102.677 42.45 102.827 42.4 102.977 42.35C103.027 42.35 103.077 42.35 103.077 42.35C103.177 42.3 103.277 42.3 103.377 42.3C103.427 42.3 103.427 42.3 103.477 42.3C103.577 42.2 103.727 42.2 103.827 42.15C103.927 42.15 104.027 42.15 104.077 42.1C104.127 42.05 104.277 42.05 104.327 42C104.427 42 104.477 41.95 104.527 41.95C104.627 41.9 104.727 41.85 104.827 41.85C104.977 41.75 105.127 41.7 105.327 41.65C105.427 41.6 105.577 41.55 105.677 41.55C105.727 41.5 105.827 41.5 105.877 41.5C105.877 41.5 105.927 41.5 105.927 41.45C105.977 41.45 105.977 41.4 106.027 41.4C106.077 41.4 106.127 41.35 106.177 41.35C106.227 41.35 106.277 41.35 106.277 41.3C106.327 41.25 106.427 41.2 106.527 41.2C106.527 41.2 106.527 41.2 106.577 41.2C106.627 41.1 106.727 41.1 106.827 41.1C106.827 41.1 106.877 41.1 106.927 41.1C107.127 40.95 107.377 40.85 107.627 40.75L107.827 40.65L107.977 40.6L108.027 40.7C108.277 40.55 108.527 40.45 108.727 40.35C108.827 40.3 108.927 40.25 109.077 40.25C109.127 40.25 109.177 40.2 109.227 40.2C109.277 40.2 109.327 40.15 109.327 40.15C109.377 40.1 109.427 40.1 109.477 40.05L109.627 39.95H109.727L109.827 40L109.877 40.05V40.2C109.877 40.25 109.827 40.25 109.777 40.3C109.777 40.3 109.777 40.3 109.777 40.35C109.727 40.4 109.727 40.45 109.727 40.5C109.677 40.6 109.627 40.65 109.577 40.65C109.527 40.65 109.527 40.7 109.527 40.7C109.477 40.75 109.427 40.8 109.377 40.85C109.327 40.95 109.227 41.05 109.127 41.15C108.977 41.25 108.777 41.4 108.577 41.5L108.477 41.55C108.177 41.7 107.877 41.9 107.577 42.05C107.527 42.1 107.427 42.1 107.377 42.1C107.377 42.1 107.377 42.1 107.327 42.1C107.327 42.15 107.277 42.2 107.227 42.2C107.127 42.3 106.977 42.35 106.877 42.4L106.627 42.5L106.577 42.55C106.527 42.6 106.477 42.65 106.427 42.65C106.377 42.65 106.327 42.65 106.327 42.65C106.277 42.65 106.227 42.65 106.177 42.7C106.127 42.7 106.077 42.75 106.027 42.75C105.627 42.9 105.327 43 105.077 43.15C104.977 43.2 104.877 43.2 104.727 43.25C104.677 43.3 104.577 43.3 104.527 43.35C104.177 43.45 103.927 43.55 103.627 43.65C103.127 43.75 102.677 43.85 102.177 43.9C101.877 43.95 101.627 43.95 101.377 43.95ZM115.02 42.8C115.02 42.75 115.07 42.75 115.12 42.75C115.17 42.7 115.22 42.7 115.27 42.7C115.62 42.6 115.97 42.5 116.32 42.4C116.52 42.35 116.67 42.3 116.92 42.2C117.07 42.1 117.32 42.05 117.47 42C117.57 42 117.62 41.9 117.72 41.9C117.87 41.9 118.07 41.9 118.27 41.9C118.32 41.9 118.32 41.9 118.32 41.85C118.17 41.65 118.47 41.8 118.47 41.65C118.52 41.5 118.67 41.5 118.87 41.5C119.07 41.4 119.32 41.25 119.47 41.15C119.62 41.05 119.92 41 120.02 40.9C120.32 40.8 120.52 40.65 120.77 40.55C121.12 40.35 121.47 40.15 121.87 39.95C122.17 39.75 122.42 39.6 122.72 39.5C123.12 39.1 123.52 38.75 123.97 38.5C124.07 38.4 124.32 38.35 124.42 38.25C125.02 37.7 125.47 38.75 124.57 39.25C124.47 39.3 124.52 39.4 124.47 39.45C124.47 39.5 124.47 39.5 124.42 39.5C124.27 39.65 124.02 39.9 123.87 39.9C123.52 40 123.37 40.25 123.12 40.4C122.87 40.55 122.62 40.7 122.32 40.85C122.17 41 121.92 41.15 121.72 41.25C121.52 41.4 121.37 41.45 121.27 41.5C121.22 41.55 121.12 41.55 121.02 41.6C121.02 41.65 120.97 41.65 120.92 41.7C120.87 41.8 120.82 41.8 120.82 41.85L120.77 41.9C120.37 41.95 120.22 42.15 119.92 42.3C119.57 42.35 119.47 42.45 119.12 42.5C119.07 42.55 119.07 42.65 119.02 42.65C118.77 42.75 118.52 42.85 118.32 42.95C117.92 43.1 117.57 43.25 117.17 43.4C117.07 43.45 116.92 43.45 116.77 43.5C116.52 43.55 116.32 43.65 116.07 43.65C115.97 43.75 115.87 43.65 115.82 43.65C115.62 43.75 115.47 43.8 115.42 43.85C115.37 43.85 115.37 43.9 115.27 43.9C115.02 43.95 114.72 43.95 114.47 43.95C114.37 43.95 114.32 43.95 114.22 43.95C114.12 43.95 114.02 43.95 113.92 44C113.82 44.1 113.62 44.1 113.42 44.1C113.12 44.1 112.87 44 112.62 44.1C112.52 44.1 112.42 44 112.22 44C111.97 44.1 111.67 43.8 111.32 43.75C111.12 43.65 110.82 43.5 110.62 43.3C110.32 43.05 110.12 42.8 109.82 42.5C109.67 42.2 109.37 41.9 109.32 41.55C109.22 41.25 109.12 40.95 109.12 40.65C109.12 40.55 109.12 40.4 109.12 40.25C109.12 39.95 109.22 39.6 109.37 39.35C109.52 39.05 109.77 38.75 109.97 38.55C110.17 38.3 110.37 38.1 110.57 37.9C110.77 37.7 110.97 37.55 111.17 37.45C111.27 37.3 111.42 37.3 111.52 37.25C111.62 37.2 111.62 37.1 111.72 37.05C111.72 37.05 111.77 37.05 111.82 37.05C111.92 37 112.02 36.95 112.12 36.85C112.12 36.85 112.12 36.85 112.17 36.85C112.42 36.95 112.52 36.75 112.62 36.7C112.87 36.65 113.02 36.65 113.12 36.65C113.27 36.65 113.42 36.55 113.52 36.5C113.57 36.5 113.67 36.5 113.72 36.5C113.87 36.5 113.97 36.55 114.07 36.5C114.22 36.45 114.52 36.65 114.67 36.65C114.87 36.65 115.02 36.65 115.12 36.65C115.37 36.65 115.57 36.8 115.62 37.05V37.1C115.87 37.35 115.87 37.55 115.87 37.8C115.92 37.9 115.87 37.95 115.87 38.05C115.87 38.2 115.82 38.3 115.72 38.5C115.67 38.6 115.62 38.7 115.52 38.75C115.42 39 115.42 39.15 115.22 39.35C115.12 39.5 115.02 39.6 114.87 39.7C114.62 39.95 114.22 40 114.02 40.35C114.02 40.35 114.02 40.4 113.97 40.4C113.57 40.35 113.52 40.7 113.22 40.8C112.97 40.9 112.67 41.1 112.42 41.15C112.22 41.2 112.12 41.2 111.92 41.2H111.82C111.77 41.35 111.62 41.25 111.57 41.15C111.52 41.1 111.52 41 111.57 40.95C111.77 40.9 111.77 40.7 112.02 40.7C112.17 40.65 112.22 40.5 112.27 40.4C112.27 40.35 112.42 40.35 112.47 40.3H112.52C112.62 40.15 112.87 40.15 112.92 40C113.12 39.75 113.42 39.6 113.72 39.4C113.82 39.35 113.87 39.15 113.97 39.05C114.02 39 114.12 38.9 114.17 38.85C114.32 38.65 114.47 38.5 114.57 38.3C114.62 38.2 114.67 38.1 114.72 37.95L114.62 37.8C114.32 37.8 114.02 37.8 113.77 37.95C113.57 38 113.42 38 113.17 38.1C113.07 38.1 113.02 38.2 112.92 38.25C112.92 38.25 112.87 38.25 112.77 38.25C112.62 38.25 112.57 38.4 112.42 38.45C112.02 38.5 111.97 38.85 111.67 39C111.47 39.1 111.37 39.4 111.17 39.5C110.87 39.75 110.77 40.1 110.62 40.4C110.57 40.6 110.47 40.85 110.37 41.1C110.37 41.15 110.47 41.2 110.47 41.35C110.57 41.5 110.57 41.7 110.62 41.95C110.72 42.2 110.87 42.4 111.12 42.55C111.22 42.6 111.27 42.7 111.37 42.75C111.62 42.9 111.82 42.85 112.07 42.85C112.17 42.8 112.22 42.85 112.32 42.85C112.47 42.85 112.57 42.85 112.62 42.85C112.67 42.85 112.72 42.85 112.72 42.85C113.02 43.05 113.22 42.95 113.47 42.95C113.67 42.95 113.77 42.85 113.97 42.8C114.02 42.75 114.12 42.8 114.17 42.8C114.37 42.8 114.57 42.8 114.72 42.8C114.87 42.8 114.97 42.8 115.02 42.8Z" fill="#CA1B1D"/>
</svg>
