<svg width="235" height="100" viewBox="0 0 235 100" fill="none" xmlns="http://www.w3.org/2000/svg">
<path d="M213.575 50.4128C213.229 54.795 210.09 58.9115 204.501 62.59C198.92 66.2626 190.982 69.4386 181.239 71.9534C161.759 76.9816 135.178 79.338 106.122 77.8152C77.0658 76.2924 51.0751 71.1809 32.546 64.1608C23.2787 60.6496 15.9052 56.6712 10.9481 52.4464C5.98283 48.2146 3.51706 43.8045 3.863 39.4223C4.20893 35.0401 7.3478 30.9236 12.9375 27.2451C18.5181 23.5725 26.4563 20.3965 36.1993 17.8817C55.6795 12.8535 82.2597 10.4971 111.316 12.0199C140.372 13.5427 166.363 18.6542 184.892 25.6743C194.159 29.1855 201.533 33.1639 206.49 37.3887C211.455 41.6205 213.921 46.0306 213.575 50.4128Z" stroke="#CA1B1D"/>
<path d="M225.386 66.642C224.275 70.9646 220.356 74.7206 214.009 77.7754C207.672 80.825 199.012 83.1249 188.624 84.5718C167.854 87.4646 140.293 86.9312 110.873 82.2715C81.4527 77.6118 55.7835 69.7143 38.0662 60.7257C29.2049 56.23 22.3584 51.4742 18.023 46.7343C13.6801 41.9863 11.9223 37.3312 13.0329 33.0086C14.1435 28.6861 18.0625 24.9301 24.4102 21.8753C30.747 18.8257 39.4063 16.5258 49.7945 15.0789C70.5645 12.1861 98.1257 12.7195 127.546 17.3792C156.966 22.0389 182.635 29.9363 200.353 38.925C209.214 43.4206 216.06 48.1765 220.396 52.9163C224.739 57.6643 226.496 62.3195 225.386 66.642Z" stroke="#CA1B1D"/>
</svg>
