<svg width="22" height="22" viewBox="0 0 22 22" fill="none" xmlns="http://www.w3.org/2000/svg">
<path d="M21.7572 0.19109C21.6607 0.0975665 21.5433 0.0353845 21.4176 0.0112544C21.292 -0.0128756 21.1628 0.00196239 21.0441 0.0541673L0.777386 8.95528C0.530879 9.06353 0.322318 9.25861 0.183026 9.51123C0.0437345 9.76385 -0.0187696 10.0604 0.00490102 10.3563C0.0285717 10.6521 0.137139 10.9314 0.314299 11.1521C0.491459 11.3729 0.727648 11.5231 0.987394 11.5804L6.3996 12.7734V19.5287C6.39971 19.8418 6.48321 20.1478 6.63938 20.4074C6.79554 20.6669 7.01726 20.8681 7.27606 20.9853C7.53486 21.1024 7.81895 21.13 8.09185 21.0647C8.36476 20.9993 8.61403 20.8439 8.80769 20.6184L11.4718 17.5175L15.6299 21.6083C15.8838 21.8604 16.211 21.9997 16.55 22C16.698 21.9996 16.8451 21.9735 16.986 21.9226C17.217 21.8405 17.4248 21.692 17.5887 21.4917C17.7526 21.2914 17.8668 21.0464 17.92 20.7812L21.9822 0.962124C22.0107 0.822792 22.0049 0.677356 21.9652 0.541487C21.9256 0.405618 21.8536 0.284467 21.7572 0.19109ZM1.2044 10.2549C1.20057 10.2433 1.20057 10.2306 1.2044 10.219C1.20892 10.2151 1.21399 10.2121 1.2194 10.21L17.191 3.19329L6.86061 11.4985L1.2194 10.2594L1.2044 10.2549ZM7.94366 19.6824C7.91609 19.7145 7.88064 19.7367 7.84181 19.7461C7.80298 19.7555 7.76254 19.7517 7.72564 19.7352C7.68874 19.7187 7.65705 19.6902 7.63461 19.6535C7.61217 19.6167 7.6 19.5732 7.59964 19.5287V13.7049L10.5688 16.623L7.94366 19.6824ZM16.751 20.477C16.7436 20.515 16.7273 20.55 16.7037 20.5784C16.6801 20.6068 16.6502 20.6276 16.617 20.6386C16.5831 20.652 16.5467 20.6548 16.5115 20.6469C16.4763 20.639 16.4437 20.6207 16.417 20.5937L7.96366 12.2717L20.5001 2.18882L16.751 20.477Z" fill="#232323"/>
</svg>
